<svg width="273" height="39" viewBox="0 0 273 39" fill="none" xmlns="http://www.w3.org/2000/svg">
<path d="M246.171 39.0001C243.093 39.0001 240.511 38.4871 238.424 37.4613C236.337 36.4001 234.762 34.7905 233.701 32.6327C232.64 30.4749 232.109 27.7334 232.109 24.4082C232.109 21.0477 232.64 18.3062 233.701 16.1837C234.762 14.0259 236.319 12.4341 238.371 11.4082C240.458 10.347 243.005 9.81638 246.011 9.81638C248.841 9.81638 251.229 10.3293 253.175 11.3552C255.12 12.3456 256.588 13.9021 257.579 16.0245C258.569 18.1116 259.064 20.8177 259.064 24.1429V26.0531H239.591C239.662 27.6803 239.909 29.0599 240.334 30.1919C240.794 31.3239 241.484 32.1729 242.403 32.7388C243.358 33.2695 244.614 33.5348 246.171 33.5348C247.02 33.5348 247.78 33.4286 248.452 33.2164C249.16 33.0041 249.761 32.6858 250.256 32.2613C250.752 31.8368 251.141 31.3062 251.424 30.6695C251.707 30.0327 251.848 29.3075 251.848 28.4939H259.064C259.064 30.2626 258.746 31.8014 258.109 33.1103C257.473 34.4191 256.588 35.5157 255.456 36.4001C254.324 37.249 252.962 37.9035 251.371 38.3633C249.814 38.7878 248.081 39.0001 246.171 39.0001ZM239.697 21.3837H251.477C251.477 20.3225 251.335 19.4028 251.052 18.6245C250.805 17.8463 250.451 17.2096 249.991 16.7143C249.531 16.2191 248.965 15.8654 248.293 15.6531C247.656 15.4055 246.931 15.2817 246.118 15.2817C244.773 15.2817 243.641 15.5116 242.722 15.9715C241.837 16.396 241.147 17.0681 240.652 17.9878C240.192 18.8722 239.874 20.0041 239.697 21.3837Z" fill="#222325"/>
<path d="M216.899 39.0001C214.953 39.0001 213.202 38.7878 211.646 38.3633C210.089 37.9388 208.763 37.3552 207.666 36.6123C206.569 35.8341 205.72 34.9144 205.119 33.8531C204.553 32.7919 204.27 31.5892 204.27 30.245C204.27 30.1035 204.27 29.962 204.27 29.8205C204.27 29.679 204.288 29.5729 204.323 29.5021H211.433C211.433 29.5729 211.433 29.6436 211.433 29.7143C211.433 29.7851 211.433 29.8558 211.433 29.9266C211.469 30.8109 211.752 31.5361 212.282 32.1021C212.813 32.6327 213.503 33.0218 214.352 33.2695C215.236 33.5171 216.156 33.6409 217.111 33.6409C217.96 33.6409 218.773 33.5701 219.552 33.4286C220.365 33.2518 221.037 32.9511 221.568 32.5266C222.134 32.1021 222.417 31.5538 222.417 30.8817C222.417 30.0327 222.063 29.3783 221.356 28.9184C220.684 28.4586 219.782 28.0871 218.65 27.8041C217.553 27.5211 216.35 27.2028 215.042 26.849C213.839 26.566 212.636 26.2477 211.433 25.8939C210.231 25.5048 209.134 25.0096 208.144 24.4082C207.188 23.8069 206.41 23.0286 205.809 22.0735C205.207 21.083 204.907 19.845 204.907 18.3592C204.907 16.9089 205.225 15.6531 205.862 14.5919C206.499 13.4953 207.365 12.5932 208.462 11.8858C209.594 11.1783 210.903 10.6654 212.388 10.347C213.91 9.99325 215.537 9.81638 217.27 9.81638C218.897 9.81638 220.418 9.99325 221.833 10.347C223.248 10.6654 224.486 11.1606 225.548 11.8327C226.609 12.4694 227.44 13.283 228.042 14.2735C228.643 15.2286 228.944 16.3075 228.944 17.5103C228.944 17.7579 228.944 17.9878 228.944 18.2001C228.944 18.4123 228.926 18.5538 228.89 18.6245H221.833V18.2001C221.833 17.5633 221.639 17.0327 221.25 16.6082C220.861 16.1484 220.295 15.7946 219.552 15.547C218.844 15.2994 217.978 15.1756 216.952 15.1756C216.244 15.1756 215.59 15.2286 214.988 15.3347C214.422 15.4409 213.927 15.6001 213.503 15.8123C213.078 16.0245 212.742 16.2898 212.495 16.6082C212.282 16.8912 212.176 17.245 212.176 17.6694C212.176 18.2708 212.424 18.766 212.919 19.1552C213.45 19.5089 214.139 19.8096 214.988 20.0572C215.837 20.3048 216.775 20.5701 217.801 20.8531C219.074 21.2069 220.401 21.5606 221.78 21.9143C223.195 22.2327 224.504 22.6749 225.707 23.2409C226.91 23.8069 227.882 24.6205 228.625 25.6817C229.368 26.7075 229.739 28.1048 229.739 29.8735C229.739 31.5715 229.403 33.0041 228.731 34.1715C228.095 35.3388 227.193 36.2763 226.025 36.9837C224.858 37.6912 223.496 38.2041 221.939 38.5225C220.383 38.8409 218.703 39.0001 216.899 39.0001Z" fill="#222325"/>
<path d="M183.784 39.0001C182.864 39.0001 181.874 38.8939 180.813 38.6817C179.787 38.4695 178.814 38.098 177.894 37.5674C176.975 37.0014 176.214 36.2055 175.613 35.1797C175.047 34.1184 174.764 32.7742 174.764 31.147C174.764 29.2014 175.188 27.5919 176.037 26.3184C176.886 25.045 178.089 24.0545 179.645 23.347C181.237 22.6041 183.13 22.0912 185.323 21.8082C187.516 21.5252 189.939 21.3837 192.592 21.3837V19.3143C192.592 18.5007 192.451 17.7933 192.168 17.1919C191.92 16.5905 191.46 16.113 190.788 15.7592C190.152 15.4055 189.25 15.2286 188.082 15.2286C186.915 15.2286 185.96 15.3701 185.217 15.6531C184.509 15.9361 183.996 16.3075 183.678 16.7674C183.395 17.1919 183.254 17.6694 183.254 18.2001V18.8368H176.09C176.055 18.6599 176.037 18.5007 176.037 18.3592C176.037 18.1824 176.037 17.9701 176.037 17.7225C176.037 16.0953 176.533 14.698 177.523 13.5307C178.513 12.3279 179.911 11.4082 181.715 10.7715C183.519 10.1347 185.624 9.81638 188.029 9.81638C190.611 9.81638 192.769 10.1524 194.503 10.8245C196.271 11.4967 197.616 12.4871 198.535 13.796C199.49 15.1048 199.968 16.7497 199.968 18.7307V31.4123C199.968 32.049 200.145 32.5266 200.498 32.845C200.888 33.128 201.312 33.2695 201.772 33.2695H203.523V38.098C203.169 38.2749 202.621 38.4518 201.878 38.6286C201.135 38.8409 200.233 38.947 199.172 38.947C198.146 38.947 197.226 38.7878 196.413 38.4695C195.635 38.1865 194.98 37.7797 194.45 37.249C193.919 36.6831 193.547 36.011 193.335 35.2327H192.964C192.362 35.9756 191.62 36.63 190.735 37.196C189.886 37.762 188.878 38.2041 187.711 38.5225C186.579 38.8409 185.27 39.0001 183.784 39.0001ZM186.278 33.4286C187.269 33.4286 188.153 33.2871 188.931 33.0041C189.709 32.6858 190.364 32.279 190.894 31.7837C191.425 31.2531 191.832 30.6164 192.115 29.8735C192.433 29.1307 192.592 28.3348 192.592 27.4858V25.947C190.611 25.947 188.843 26.0885 187.286 26.3715C185.73 26.6191 184.492 27.0613 183.572 27.698C182.688 28.3348 182.245 29.2191 182.245 30.3511C182.245 30.9878 182.405 31.5361 182.723 31.996C183.041 32.4558 183.501 32.8096 184.103 33.0572C184.704 33.3048 185.429 33.4286 186.278 33.4286Z" fill="#222325"/>
<path d="M140.344 38.3632V1.9632H161.144C163.054 1.9632 164.77 2.33463 166.291 3.07748C167.848 3.82034 169.068 4.86388 169.952 6.2081C170.837 7.55232 171.279 9.12647 171.279 10.9305C171.279 12.3809 171.014 13.672 170.483 14.804C169.952 15.936 169.227 16.8734 168.307 17.6163C167.423 18.3591 166.415 18.9074 165.283 19.2612V19.4734C166.627 19.7564 167.812 20.287 168.838 21.0652C169.899 21.8435 170.731 22.8516 171.332 24.0897C171.969 25.2925 172.287 26.7251 172.287 28.3877C172.287 30.5809 171.774 32.4204 170.748 33.9061C169.758 35.3918 168.431 36.5061 166.769 37.2489C165.106 37.9918 163.249 38.3632 161.197 38.3632H140.344ZM148.25 31.8897H159.658C160.967 31.8897 162.028 31.5183 162.842 30.7755C163.691 30.0326 164.116 28.8829 164.116 27.3265C164.116 26.4067 163.939 25.6108 163.585 24.9387C163.231 24.2666 162.701 23.7537 161.993 23.3999C161.286 23.0108 160.384 22.8163 159.287 22.8163H148.25V31.8897ZM148.25 16.6612H158.756C159.711 16.6612 160.507 16.4843 161.144 16.1306C161.816 15.7414 162.311 15.2462 162.63 14.6448C162.984 14.0081 163.16 13.2829 163.16 12.4693C163.16 11.0897 162.771 10.0462 161.993 9.33871C161.25 8.63123 160.26 8.27749 159.022 8.27749H148.25V16.6612Z" fill="#222325"/>
<path d="M131.494 39.0001C129.725 39.0001 128.292 38.6817 127.196 38.045C126.099 37.4083 125.303 36.5593 124.808 35.4981C124.313 34.4015 124.065 33.1987 124.065 31.8899V16.1307H120.616V10.4531H124.33L125.71 2.49396H131.441V10.4531H136.534V16.1307H131.441V30.6695C131.441 31.5185 131.635 32.1729 132.024 32.6328C132.413 33.0572 133.05 33.2695 133.934 33.2695H136.534V38.1511C136.11 38.2926 135.615 38.4164 135.049 38.5225C134.483 38.664 133.881 38.7702 133.245 38.8409C132.608 38.947 132.024 39.0001 131.494 39.0001Z" fill="#222325"/>
<path d="M92.8353 38.3633V10.4531H98.9373L99.521 14.2735H99.8924C100.529 13.3538 101.29 12.5579 102.174 11.8858C103.094 11.2137 104.12 10.7007 105.252 10.347C106.384 9.99325 107.622 9.81638 108.966 9.81638C110.805 9.81638 112.415 10.1524 113.794 10.8245C115.174 11.4967 116.235 12.5579 116.978 14.0082C117.756 15.4586 118.146 17.3511 118.146 19.6858V38.3633H110.77V20.8531C110.77 19.9688 110.664 19.2259 110.452 18.6245C110.239 17.9878 109.921 17.4749 109.497 17.0858C109.107 16.6613 108.612 16.3606 108.011 16.1837C107.409 16.0069 106.737 15.9184 105.994 15.9184C104.898 15.9184 103.907 16.1837 103.023 16.7143C102.139 17.245 101.449 17.9701 100.954 18.8899C100.458 19.8096 100.211 20.8708 100.211 22.0735V38.3633H92.8353Z" fill="#222325"/>
<path d="M76.1218 39.0001C73.0442 39.0001 70.4619 38.4871 68.3748 37.4613C66.2878 36.4001 64.7136 34.7905 63.6524 32.6327C62.5912 30.4749 62.0605 27.7334 62.0605 24.4082C62.0605 21.0477 62.5912 18.3062 63.6524 16.1837C64.7136 14.0259 66.2701 12.4341 68.3218 11.4082C70.4089 10.347 72.9558 9.81638 75.9626 9.81638C78.7925 9.81638 81.1803 10.3293 83.1259 11.3552C85.0714 12.3456 86.5395 13.9021 87.5299 16.0245C88.5204 18.1116 89.0157 20.8177 89.0157 24.1429V26.0531H69.5422C69.6129 27.6803 69.8606 29.0599 70.285 30.1919C70.7449 31.3239 71.4347 32.1729 72.3544 32.7388C73.3095 33.2695 74.5653 33.5348 76.1218 33.5348C76.9708 33.5348 77.7313 33.4286 78.4034 33.2164C79.1109 33.0041 79.7123 32.6858 80.2075 32.2613C80.7027 31.8368 81.0918 31.3062 81.3748 30.6695C81.6578 30.0327 81.7993 29.3075 81.7993 28.4939H89.0157C89.0157 30.2626 88.6973 31.8014 88.0606 33.1103C87.4238 34.4191 86.5395 35.5157 85.4075 36.4001C84.2755 37.249 82.9136 37.9035 81.3218 38.3633C79.7653 38.7878 78.032 39.0001 76.1218 39.0001ZM69.6483 21.3837H81.4279C81.4279 20.3225 81.2864 19.4028 81.0034 18.6245C80.7558 17.8463 80.4021 17.2096 79.9422 16.7143C79.4823 16.2191 78.9163 15.8654 78.2442 15.6531C77.6075 15.4055 76.8823 15.2817 76.0687 15.2817C74.7245 15.2817 73.5925 15.5116 72.6728 15.9715C71.7884 16.396 71.0986 17.0681 70.6034 17.9878C70.1435 18.8722 69.8252 20.0041 69.6483 21.3837Z" fill="#222325"/>
<path d="M50.8857 6.36735V0H58.2613V6.36735H50.8857ZM50.8857 38.3633V10.4531H58.2613V38.3633H50.8857Z" fill="#222325"/>
<path d="M38.3314 38.3633V0H45.7069V38.3633H38.3314Z" fill="#222325"/>
<path d="M17.9347 39.0001C14.1497 39.0001 10.9129 38.3457 8.22449 37.0368C5.53606 35.6926 3.48436 33.6232 2.06939 30.8287C0.689796 28.0341 0 24.479 0 20.1633C0 13.796 1.55646 9.07354 4.66939 5.99599C7.81769 2.88306 12.2395 1.3266 17.9347 1.3266C21.0476 1.3266 23.8422 1.85721 26.3184 2.91844C28.7946 3.97966 30.7401 5.5715 32.1551 7.69395C33.6055 9.8164 34.3306 12.4871 34.3306 15.7062H26.3714C26.3714 14.0082 26.0177 12.5756 25.3102 11.4082C24.6381 10.2409 23.6653 9.35653 22.3918 8.75517C21.1538 8.11844 19.7034 7.80007 18.0408 7.80007C15.7769 7.80007 13.902 8.24225 12.4163 9.1266C10.966 10.011 9.88708 11.3198 9.1796 13.0531C8.50749 14.7511 8.17143 16.8382 8.17143 19.3144V20.9593C8.17143 23.5062 8.52517 25.6463 9.23266 27.3797C9.94014 29.0776 11.0014 30.3688 12.4163 31.2531C13.8667 32.1021 15.7238 32.5266 17.9878 32.5266C19.7565 32.5266 21.2952 32.2259 22.6041 31.6246C23.9129 31.0232 24.9211 30.1389 25.6286 28.9715C26.3361 27.8042 26.6898 26.3715 26.6898 24.6735H34.3306C34.3306 27.8926 33.6231 30.5633 32.2082 32.6858C30.8286 34.8082 28.9007 36.4001 26.4245 37.4613C23.9483 38.4872 21.1184 39.0001 17.9347 39.0001Z" fill="#222325"/>
<path d="M272.74 33.2931C272.74 36.4106 270.213 38.9379 267.095 38.9379C263.978 38.9379 261.451 36.4106 261.451 33.2931C261.451 30.1755 263.978 27.6483 267.095 27.6483C270.213 27.6483 272.74 30.1755 272.74 33.2931Z" fill="#506FD9"/>
</svg>
