<svg width="146" height="42" viewBox="0 0 146 42" fill="none" xmlns="http://www.w3.org/2000/svg">
<path d="M54.3143 0C51.5752 0 48.8975 0.812258 46.62 2.33406C44.3424 3.85586 42.5673 6.01885 41.5191 8.54951C40.4708 11.0802 40.1966 13.8648 40.731 16.5514C41.2653 19.2379 42.5844 21.7057 44.5213 23.6425C46.4582 25.5794 48.9259 26.8985 51.6124 27.4328C54.299 27.9672 57.0836 27.693 59.6143 26.6447C62.145 25.5965 64.308 23.8214 65.8298 21.5438C67.3516 19.2663 68.1638 16.5886 68.1638 13.8495C68.1635 10.1765 66.7043 6.65397 64.1071 4.05676C61.5098 1.45954 57.9873 0.00030508 54.3143 0V0ZM63.5515 20.7961L55.2819 16.5174C55.1078 16.4268 54.9093 16.3943 54.7153 16.4245C54.5214 16.4547 54.3422 16.5461 54.2039 16.6854L47.6289 23.2754C47.6015 23.3031 47.5651 23.3201 47.5263 23.3232C47.4875 23.3263 47.4489 23.3153 47.4174 23.2923C47.386 23.2693 47.364 23.2357 47.3553 23.1977C47.3466 23.1598 47.3518 23.1199 47.37 23.0855L51.6475 14.817C51.7383 14.643 51.771 14.4446 51.741 14.2507C51.711 14.0567 51.6198 13.8775 51.4807 13.739L44.8884 7.16174C44.8613 7.13437 44.8448 7.09822 44.8418 7.05977C44.8389 7.02132 44.8498 6.98308 44.8725 6.95192C44.8952 6.92076 44.9283 6.89871 44.9658 6.88972C45.0033 6.88074 45.0428 6.8854 45.0771 6.90288L53.3468 11.1804C53.5209 11.271 53.7194 11.3035 53.9133 11.2733C54.1073 11.2431 54.2865 11.1517 54.4248 11.0124L61.0021 4.4236C61.0294 4.39643 61.0656 4.37991 61.104 4.37699C61.1425 4.37407 61.1807 4.38494 61.2119 4.40765C61.243 4.43036 61.2651 4.46343 61.2741 4.50093C61.2831 4.53843 61.2784 4.5779 61.2609 4.61227L56.9834 12.8854C56.8927 13.0594 56.8599 13.2578 56.8899 13.4518C56.92 13.6457 57.0112 13.8249 57.1503 13.9634L63.7356 20.5372C63.761 20.5646 63.7761 20.5998 63.7785 20.637C63.7809 20.6742 63.7705 20.7111 63.7488 20.7415C63.7272 20.7719 63.6958 20.7939 63.6599 20.8039C63.6239 20.8138 63.5857 20.811 63.5515 20.7961Z" fill="#006BD3"/>
<path d="M69.2461 0.780273H78.0381V19.5043H87.2212L84.7511 27.0756H69.2461V0.780273Z" fill="#006BD3"/>
<path d="M0 0.782227V27.0776H19.8953V19.5063H8.79542V17.3606H18.4249V10.5015H8.79542V8.35354H19.8953V0.782227H0Z" fill="#006BD3"/>
<path d="M36.0785 19.5037C32.4314 19.5037 29.7508 17.4674 29.7508 13.9262C29.7508 10.385 32.39 8.34865 36.0785 8.34865H40.1213V0.777344H34.0743C25.2294 0.777344 20.4688 6.37788 20.4688 13.9204C20.4688 21.463 25.2697 27.0704 34.1146 27.0704H40.1213V19.4991H36.0785V19.5037Z" fill="#006BD3"/>
<path d="M116.608 0.765625H130.466C135.65 0.765625 138.749 3.72926 138.749 7.62479C138.749 10.9278 137.086 12.7318 134.93 13.4382V13.5037C137.395 14.2136 139.587 16.2649 139.587 19.5484C139.587 24.2113 136.461 27.0737 130.407 27.0737H116.602V0.765625H116.608ZM125.185 16.4754V21.0981H128.113C129.91 21.0981 130.695 20.341 130.695 18.7856C130.695 17.3164 129.951 16.4754 128.113 16.4754H125.185ZM125.174 6.61467V10.6195H127.861C129.519 10.6195 130.154 9.85672 130.154 8.61535C130.154 7.28539 129.494 6.61236 127.861 6.61236H125.174V6.61467Z" fill="#006BD3"/>
<path d="M115.564 27.0759H106L105.051 23.56H96.7679L95.8475 27.0759H86.2812L94.5716 0.75293H107.311L115.564 27.0759ZM100.979 8.02741H100.864L98.4936 16.9816H103.347L100.979 8.02741Z" fill="#006BD3"/>
<path d="M142.4 6.14392C140.905 6.14392 139.766 5.07742 139.766 3.50702C139.766 1.93661 140.905 0.870117 142.4 0.870117C143.896 0.870117 145.035 1.93661 145.035 3.50702C145.035 5.07742 143.896 6.14392 142.4 6.14392ZM142.4 1.20721C141.107 1.20721 140.122 2.14945 140.122 3.50817C140.122 4.86689 141.107 5.80913 142.4 5.80913C143.693 5.80913 144.678 4.86689 144.678 3.50817C144.678 2.14945 143.695 1.20721 142.4 1.20721ZM142.896 3.66924L143.544 4.91866H143.094L142.466 3.7003H141.838V4.91866H141.451V2.00564H142.633C143.16 2.00564 143.567 2.2691 143.567 2.84319C143.575 3.03889 143.511 3.23072 143.387 3.38276C143.264 3.53481 143.089 3.63665 142.896 3.66924ZM142.613 2.34733H141.841V3.3356H142.569C142.985 3.3356 143.183 3.18143 143.183 2.84664C143.183 2.51185 142.977 2.34733 142.613 2.34733Z" fill="#006BD3"/>
<path d="M139.613 34.4473V34.7798H138.971V36.456H138.572V34.7798H137.93V34.4473H139.613ZM141.785 36.456L141.71 35.2745C141.703 35.1191 141.703 34.9293 141.695 34.713H141.673C141.622 34.8902 141.558 35.1272 141.504 35.3113L141.142 36.4272H140.729L140.366 35.2825C140.33 35.1272 140.271 34.8902 140.226 34.713H140.204C140.204 34.8983 140.196 35.0904 140.189 35.2745L140.116 36.456H139.731L139.879 34.4473H140.477L140.822 35.4298C140.867 35.5851 140.904 35.7324 140.955 35.9394H140.962C141.014 35.7542 141.058 35.5851 141.103 35.4367L141.448 34.4473H142.023L142.178 36.456H141.785Z" fill="#006BD3"/>
<path d="M0 34.5039H2.96709C4.49147 34.5039 5.52806 35.3587 5.52806 36.7416C5.52806 38.289 4.37758 39.0333 2.92337 39.0333H1.38748V41.8854H0V34.5039ZM1.38748 37.9162H2.76806C3.601 37.9162 4.11757 37.5607 4.11757 36.7658C4.11757 35.9604 3.54233 35.6153 2.80372 35.6153H1.38748V37.9162Z" fill="#006BD3"/>
<path d="M8.14778 38.8286V41.8854H6.78906V34.5039H9.91031C11.4876 34.5039 12.3344 35.3679 12.3344 36.5126C12.3344 37.4917 11.7914 38.0439 11.1989 38.2556C11.6452 38.3994 12.1871 38.8032 12.1871 40.1113V40.4565C12.1871 40.9569 12.1871 41.5494 12.2907 41.8831H10.9711C10.8388 41.5621 10.8261 41.0018 10.8261 40.2494V40.1251C10.8261 39.2335 10.596 38.8263 9.35463 38.8263L8.14778 38.8286ZM8.14778 37.7114H9.57783C10.5385 37.7114 10.9296 37.3479 10.9296 36.6576C10.9296 35.9938 10.4971 35.6222 9.63995 35.6222H8.14433L8.14778 37.7114Z" fill="#006BD3"/>
<path d="M20.2818 38.1638C20.2818 40.2093 19.0807 41.9914 16.7084 41.9914C14.4408 41.9926 13.2305 40.3094 13.2305 38.196C13.2305 36.0596 14.5351 34.3994 16.8073 34.3994C18.9369 34.3994 20.2818 35.9261 20.2818 38.1638ZM14.6628 38.1638C14.6628 39.6594 15.3531 40.8536 16.7624 40.8536C18.2834 40.8536 18.8471 39.5881 18.8471 38.1833C18.8471 36.7199 18.2063 35.5372 16.7463 35.5372C15.2864 35.5372 14.6628 36.6785 14.6628 38.1626V38.1638Z" fill="#006BD3"/>
<path d="M23.0445 35.6505H20.7539V34.5H26.7191V35.6505H24.432V41.8849H23.0445V35.6505Z" fill="#006BD3"/>
<path d="M32.8705 38.61H29.2925V40.7384H33.2329L33.0661 41.8888H27.9453V34.5039H33.0327V35.6544H29.2925V37.4664H32.8705V38.61Z" fill="#006BD3"/>
<path d="M40.651 39.6714C40.3438 41.006 39.3417 41.985 37.5527 41.985C35.2575 41.985 34.1484 40.3226 34.1484 38.2264C34.1484 36.2096 35.2805 34.3965 37.616 34.3965C39.5039 34.3965 40.4542 35.4952 40.6475 36.7285H39.2669C39.0748 36.0796 38.633 35.4986 37.5734 35.4986C36.1503 35.4986 35.5877 36.7837 35.5877 38.1793C35.5877 39.4954 36.0939 40.8829 37.616 40.8829C38.6905 40.8829 39.0771 40.2007 39.2635 39.6714H40.651Z" fill="#006BD3"/>
<path d="M43.5562 35.6505H41.2656V34.5H47.2309V35.6505H44.9437V41.8849H43.5562V35.6505Z" fill="#006BD3"/>
<path d="M49.6306 34.5039V41.8854H48.25V34.5039H49.6306Z" fill="#006BD3"/>
<path d="M51.4805 41.8854V34.5039H53.2246C54.1945 36.1848 56.1008 39.4073 56.4678 40.2114H56.4885C56.4091 39.3796 56.4126 38.1406 56.4126 36.9291V34.5039H57.6781V41.8854H56.0283C55.1724 40.3898 53.1084 36.7773 52.7092 35.9328H52.6919C52.746 36.6449 52.7575 38.0704 52.7575 39.3969V41.8854H51.4805Z" fill="#006BD3"/>
<path d="M65.7727 41.885H64.7465C64.6787 41.6161 64.6402 41.3407 64.6314 41.0635C64.2529 41.6054 63.5615 42 62.4294 42C60.2918 42 59.1172 40.3824 59.1172 38.2805C59.1172 36.0647 60.3827 34.3965 62.6733 34.3965C64.5141 34.3965 65.6151 35.4193 65.8049 36.6974H64.4244C64.2391 36.09 63.7801 35.4975 62.6572 35.4975C61.073 35.4975 60.5564 36.7998 60.5564 38.2172C60.5564 39.5736 61.1167 40.8817 62.6492 40.8817C64.1137 40.8817 64.4197 39.882 64.4197 39.0203V38.9501H62.6411V37.7996H65.7727V41.885Z" fill="#006BD3"/>
<path d="M71.0433 41.8854L69.1289 34.5039H70.6027C71.2538 37.5607 71.7347 39.5971 71.8371 40.4197H71.8486C72.0994 39.2013 72.9151 36.3205 73.3638 34.5039H74.6294C75.0297 35.9995 75.8661 39.1668 76.0813 40.3564H76.0916C76.3344 38.8504 77.1639 35.7775 77.4722 34.5039H78.8217L76.7704 41.8854H75.3277C74.9193 40.2287 74.168 37.4549 73.9345 36.3205H73.9241C73.6722 37.5619 72.9082 40.3276 72.4872 41.8854H71.0433Z" fill="#006BD3"/>
<path d="M79.8633 34.5039H81.2439V37.4526H84.5147V34.5039H85.8952V41.8854H84.5147V38.5996H81.2473V41.8854H79.8667L79.8633 34.5039Z" fill="#006BD3"/>
<path d="M88.9957 40.0055L88.3456 41.8854H86.9766L89.5249 34.5039H91.2564L93.914 41.8854H92.4575L91.7787 40.0055H88.9957ZM91.4657 38.855C90.8801 37.1661 90.5281 36.1583 90.3567 35.5301H90.3463C90.1645 36.2204 89.7711 37.4112 89.304 38.855H91.4657Z" fill="#006BD3"/>
<path d="M95.6031 35.6505H93.3125V34.5H99.2846V35.6505H96.9917V41.8849H95.6031V35.6505Z" fill="#006BD3"/>
<path d="M103.545 39.7577C103.725 40.5492 104.282 40.9266 105.21 40.9266C106.164 40.9266 106.56 40.5205 106.56 39.9257C106.56 39.278 106.202 38.9639 104.865 38.6487C102.948 38.1885 102.414 37.5085 102.414 36.4984C102.414 35.2766 103.324 34.3965 105.038 34.3965C106.929 34.3965 107.684 35.4319 107.793 36.4789H106.392C106.295 35.9554 105.989 35.4434 104.995 35.4434C104.261 35.4434 103.831 35.7575 103.831 36.3431C103.831 36.9287 104.176 37.1484 105.407 37.4372C107.54 37.9457 107.976 38.7511 107.976 39.76C107.976 41.0543 107.004 41.9816 105.1 41.9816C103.231 41.9816 102.309 41.0278 102.141 39.7543L103.545 39.7577Z" fill="#006BD3"/>
<path d="M113.512 41.8854L110.879 34.5039H112.366L113.534 38.006C113.879 39.0552 114.18 40.0044 114.348 40.7315H114.369C114.521 40.0722 114.854 39.0886 115.219 38.0336L116.439 34.5039H117.855L115.146 41.8854H113.512Z" fill="#006BD3"/>
<path d="M120.217 34.5039V41.8854H118.836V34.5039H120.217Z" fill="#006BD3"/>
<path d="M123.608 35.6505H121.316V34.5H127.283V35.6505H124.996V41.8849H123.608V35.6505Z" fill="#006BD3"/>
<path d="M128.738 40.0055L128.088 41.8854H126.723L129.271 34.5039H130.997L133.654 41.8854H132.194L131.516 40.0055H128.738ZM131.208 38.855C130.624 37.1661 130.271 36.1583 130.099 35.5301H130.089C129.907 36.2204 129.514 37.4112 129.047 38.855H131.208Z" fill="#006BD3"/>
<path d="M134.68 34.5039H136.061V40.7384H139.797L139.63 41.8888H134.676L134.68 34.5039Z" fill="#006BD3"/>
<path d="M100.188 36.7257C100.406 35.9679 100.534 35.1871 100.571 34.3994H101.63C101.562 35.2052 101.352 35.9927 101.01 36.7257H100.188Z" fill="#006BD3"/>
</svg>
