<?xml version="1.0" encoding="UTF-8" standalone="no"?>
<svg
   version="1.1"
   width="1080"
   height="1080"
   viewBox="0 0 1080 1080"
   xml:space="preserve"
   id="svg275"
   sodipodi:docname="devops_logo.svg"
   inkscape:version="1.3 (1:1.3+202307231459+0e150ed6c4)"
   xmlns:inkscape="http://www.inkscape.org/namespaces/inkscape"
   xmlns:sodipodi="http://sodipodi.sourceforge.net/DTD/sodipodi-0.dtd"
   xmlns="http://www.w3.org/2000/svg"
   xmlns:svg="http://www.w3.org/2000/svg"><sodipodi:namedview
   id="namedview275"
   pagecolor="#ffffff"
   bordercolor="#000000"
   borderopacity="0.25"
   inkscape:showpageshadow="2"
   inkscape:pageopacity="0.0"
   inkscape:pagecheckerboard="0"
   inkscape:deskcolor="#d1d1d1"
   inkscape:zoom="0.53425846"
   inkscape:cx="664.4724"
   inkscape:cy="548.4237"
   inkscape:window-width="1850"
   inkscape:window-height="1016"
   inkscape:window-x="70"
   inkscape:window-y="27"
   inkscape:window-maximized="1"
   inkscape:current-layer="svg275" />&#10;<desc
   id="desc1">Created with Fabric.js 5.2.4</desc>&#10;<defs
   id="defs1">&#10;&#10;		&#10;		&#10;		&#10;		&#10;		&#10;		&#10;		&#10;		&#10;		&#10;		&#10;		&#10;		&#10;		&#10;		&#10;		&#10;		&#10;		&#10;		&#10;		&#10;		&#10;		&#10;		&#10;		&#10;		&#10;		&#10;		&#10;		&#10;		&#10;		&#10;		&#10;		&#10;		&#10;		&#10;		&#10;		&#10;		&#10;		&#10;		&#10;		&#10;		&#10;		&#10;		&#10;		&#10;		&#10;		&#10;		&#10;		&#10;		&#10;		&#10;		&#10;		&#10;		&#10;		&#10;		&#10;		&#10;		&#10;		&#10;		&#10;		&#10;		&#10;		&#10;		&#10;		&#10;		&#10;		&#10;		&#10;		&#10;		&#10;		&#10;		&#10;		&#10;		&#10;		&#10;		&#10;		&#10;		&#10;		&#10;		&#10;		&#10;		&#10;		&#10;		&#10;		&#10;		&#10;		&#10;		&#10;		&#10;		&#10;		&#10;		&#10;		&#10;		&#10;		&#10;		&#10;		&#10;		&#10;		&#10;		&#10;		&#10;		&#10;		&#10;		&#10;		&#10;		&#10;		&#10;		&#10;		&#10;		&#10;		&#10;		&#10;		&#10;		&#10;		&#10;		&#10;		&#10;		&#10;		&#10;		&#10;		&#10;		&#10;		&#10;		&#10;		&#10;		&#10;		&#10;		&#10;		&#10;		&#10;		&#10;		&#10;		&#10;		&#10;		&#10;		&#10;		&#10;		&#10;		&#10;		&#10;		&#10;		&#10;		&#10;		&#10;		&#10;		&#10;		&#10;		&#10;		&#10;		&#10;		&#10;		&#10;		&#10;		&#10;		&#10;		&#10;		&#10;		&#10;		&#10;		&#10;		&#10;		&#10;		&#10;		&#10;		&#10;		&#10;		&#10;		&#10;		&#10;		&#10;		&#10;		&#10;		&#10;		&#10;		&#10;		&#10;		&#10;		&#10;		&#10;		&#10;		&#10;		&#10;		&#10;		&#10;		&#10;		&#10;		&#10;		&#10;		&#10;		&#10;		&#10;		&#10;		&#10;		&#10;		&#10;		&#10;		&#10;		&#10;		&#10;		&#10;		&#10;		&#10;		&#10;		&#10;		&#10;		&#10;		&#10;		&#10;		&#10;		&#10;		&#10;		&#10;		&#10;		&#10;		&#10;		&#10;		&#10;		&#10;		&#10;		&#10;		&#10;		&#10;		&#10;		&#10;		&#10;		&#10;		&#10;		&#10;		&#10;		&#10;		&#10;		&#10;		&#10;		&#10;		&#10;		&#10;		&#10;		&#10;		&#10;		&#10;		&#10;		&#10;		&#10;		&#10;		&#10;		&#10;		&#10;		&#10;		&#10;		&#10;		&#10;		&#10;		&#10;		&#10;		&#10;		&#10;		&#10;		&#10;		&#10;		&#10;		&#10;		&#10;		&#10;		&#10;		&#10;		&#10;		&#10;		&#10;		&#10;		&#10;		&#10;		&#10;		&#10;		&#10;		&#10;		&#10;&#10;&#10;</defs>&#10;&#10;<g
   transform="matrix(1 0 0 1 540 540)"
   id="647bf5ab-bbd3-44a3-b195-b38b5bd2daf8">&#10;</g>&#10;<g
   transform="translate(1856.2646,1078.6046)"
   id="Path_47487">&#10;<path
   style="opacity:1;fill:#72c7e8;fill-rule:nonzero;stroke:none;stroke-width:1;stroke-linecap:butt;stroke-linejoin:miter;stroke-miterlimit:4;stroke-dasharray:none;stroke-dashoffset:0"
   vector-effect="non-scaling-stroke"
   transform="translate(-1744.82,-965.43)"
   d="m 1744.83,962.26 c 0.6267,-5.6e-4 1.2393,0.18532 1.76,0.534 1.0613,0.71458 1.5889,1.99707 1.3378,3.2516 -0.2511,1.25453 -1.2317,2.23514 -2.4862,2.48623 -1.2545,0.25109 -2.537,-0.27658 -3.2516,-1.33783 -0.3435,-0.52329 -0.5276,-1.13506 -0.53,-1.761 0,-1.7496 1.4204,-3.16725 3.17,-3.17 z"
   stroke-linecap="round"
   id="path33" />&#10;</g><g
   transform="translate(1822.2746,1078.6046)"
   id="Path_47488">&#10;<path
   style="opacity:1;fill:#72c7e8;fill-rule:nonzero;stroke:none;stroke-width:1;stroke-linecap:butt;stroke-linejoin:miter;stroke-miterlimit:4;stroke-dasharray:none;stroke-dashoffset:0"
   vector-effect="non-scaling-stroke"
   transform="translate(-1710.83,-965.43)"
   d="m 1710.83,962.26 c 1.5099,0.004 2.8074,1.07264 3.1,2.55394 0.2927,1.4813 -0.5007,2.96328 -1.8958,3.541 -1.395,0.57771 -3.0039,0.0906 -3.8442,-1.16394 -0.3435,-0.52329 -0.5276,-1.13506 -0.53,-1.761 0,-1.74915 1.4209,-3.16615 3.17,-3.17 z"
   stroke-linecap="round"
   id="path34" />&#10;</g><g
   transform="matrix(1.4653359,0,0,1.4653359,130.15675,916.60234)"
   id="Path_47498">&#10;<path
   style="opacity:0.58;fill:#29b5e8;fill-rule:nonzero;stroke:none;stroke-width:1;stroke-linecap:butt;stroke-linejoin:miter;stroke-miterlimit:4;stroke-dasharray:none;stroke-dashoffset:0"
   vector-effect="non-scaling-stroke"
   transform="translate(-209,-923)"
   d="m 209,954 c 17.12083,0 31,-13.87917 31,-31 0,-17.12083 -13.87917,-31 -31,-31 -17.12083,0 -31,13.87917 -31,31 0,17.12083 13.87917,31 31,31 z"
   stroke-linecap="round"
   id="path44" />&#10;</g><g
   transform="matrix(1.4653359,0,0,1.4653359,530.36903,790.07578)"
   id="Path_47500">&#10;<path
   style="opacity:0.95;fill:#ceddef;fill-rule:nonzero;stroke:none;stroke-width:1;stroke-linecap:butt;stroke-linejoin:miter;stroke-miterlimit:4;stroke-dasharray:none;stroke-dashoffset:0"
   vector-effect="non-scaling-stroke"
   transform="translate(-445.63,-784.08)"
   d="m 445.632,820.7 c 171,0 309.631,-16.394 309.631,-36.617 0,-20.223 -138.627,-36.616 -309.631,-36.616 -171.004,0 -309.632,16.391 -309.632,36.613 0,20.222 138.627,36.62 309.632,36.62 z"
   stroke-linecap="round"
   id="path45" />&#10;</g><g
   transform="matrix(1.4653359,0,0,1.4653359,253.14213,598.40984)"
   id="Path_47501">&#10;<path
   style="opacity:0.95;fill:#ffffff;fill-rule:nonzero;stroke:none;stroke-width:1;stroke-linecap:butt;stroke-linejoin:miter;stroke-miterlimit:4;stroke-dasharray:none;stroke-dashoffset:0"
   vector-effect="non-scaling-stroke"
   transform="translate(-256.44,-653.28)"
   d="M 353.446,591.253 H 159.429 c -2.49538,0 -4.51845,2.02262 -4.519,4.518 v 115.02 c 5.5e-4,2.49538 2.02362,4.518 4.519,4.518 h 194.017 c 1.19825,0 2.34742,-0.476 3.19471,-1.32329 0.84729,-0.84729 1.32329,-1.99646 1.32329,-3.19471 v -115.02 c 0,-2.49522 -2.02278,-4.518 -4.518,-4.518 z"
   stroke-linecap="round"
   id="path46" />&#10;</g><g
   transform="matrix(1.4653359,0,0,1.4653359,253.14213,516.8639)"
   id="Path_47502">&#10;<path
   style="opacity:0.95;fill:#357ded;fill-rule:nonzero;stroke:none;stroke-width:1;stroke-linecap:butt;stroke-linejoin:miter;stroke-miterlimit:4;stroke-dasharray:none;stroke-dashoffset:0"
   vector-effect="non-scaling-stroke"
   transform="translate(-256.44,-597.63)"
   d="m 159.429,591.253 h 194.017 c 2.49454,0.002 4.51635,2.02346 4.518,4.518 V 604 H 154.91 v -8.23 c 0.002,-2.49454 2.02446,-4.5159 4.519,-4.517 z"
   stroke-linecap="round"
   id="path47" />&#10;</g><g
   transform="matrix(1.4653359,0,0,1.4653359,248.18929,588.37229)"
   id="Path_47503">&#10;<path
   style="opacity:0.95;fill:#357ded;fill-rule:nonzero;stroke:none;stroke-width:1;stroke-linecap:butt;stroke-linejoin:miter;stroke-miterlimit:4;stroke-dasharray:none;stroke-dashoffset:0"
   vector-effect="non-scaling-stroke"
   transform="translate(-253.06,-646.43)"
   d="m 239.476,634.541 v 1.331 l 0.028,22.579 c 5.5e-4,0.31292 0.25408,0.56645 0.567,0.567 l 26.573,-0.113 v -22.2 c -5.1e-4,-0.25025 -0.10111,-0.4899 -0.27938,-0.66554 -0.17827,-0.17564 -0.41939,-0.27267 -0.66962,-0.26946 l -9.151,0.043 -10.425,0.042 -0.4,-0.736 -0.51,-0.935 c -0.11128,-0.21599 -0.33717,-0.34841 -0.58,-0.34 h -4.459 c -0.38189,0.0109 -0.68452,0.32598 -0.68,0.708 z"
   stroke-linecap="round"
   id="path48" />&#10;</g><g
   transform="matrix(1.4653359,0,0,1.4653359,251.25184,591.58138)"
   id="Path_47504">&#10;<path
   style="opacity:0.95;fill:#ffffff;fill-rule:nonzero;stroke:none;stroke-width:1;stroke-linecap:butt;stroke-linejoin:miter;stroke-miterlimit:4;stroke-dasharray:none;stroke-dashoffset:0"
   vector-effect="non-scaling-stroke"
   transform="translate(-255.15,-648.62)"
   d="m 270.227,639.074 h -28.2 l -1.955,19.094 h 28.2 z"
   stroke-linecap="round"
   id="path49" />&#10;</g><g
   transform="matrix(1.4653359,0,0,1.4653359,253.01025,593.63285)"
   id="Path_47505">&#10;<path
   style="opacity:0.95;fill:#357ded;fill-rule:nonzero;stroke:none;stroke-width:1;stroke-linecap:butt;stroke-linejoin:miter;stroke-miterlimit:4;stroke-dasharray:none;stroke-dashoffset:0"
   vector-effect="non-scaling-stroke"
   transform="translate(-256.35,-650.02)"
   d="m 240.438,659.329 28.613,0.114 c 0.37033,0.0136 0.69518,-0.24506 0.765,-0.609 l 2.8,-13.754 0.652,-3.2 c 0.0435,-0.29112 -0.0404,-0.58688 -0.23033,-0.81179 -0.18989,-0.22491 -0.46738,-0.35724 -0.76167,-0.36321 h -0.694 l -27.933,-0.114 c -0.37033,-0.0136 -0.69518,0.24506 -0.765,0.609 l -3.258,16.007 -0.085,0.41 -0.114,0.525 c -0.0411,0.29071 0.0437,0.58516 0.23305,0.8095 0.1894,0.22434 0.46546,0.35729 0.75895,0.3655 z"
   stroke-linecap="round"
   id="path50" />&#10;</g><g
   transform="matrix(1.4653359,0,0,1.4653359,330.4679,588.37229)"
   id="Path_47506">&#10;<path
   style="opacity:0.95;fill:#93bbe5;fill-rule:nonzero;stroke:none;stroke-width:1;stroke-linecap:butt;stroke-linejoin:miter;stroke-miterlimit:4;stroke-dasharray:none;stroke-dashoffset:0"
   vector-effect="non-scaling-stroke"
   transform="translate(-309.21,-646.43)"
   d="m 295.625,634.541 v 1.331 l 0.028,22.579 c 5.5e-4,0.31292 0.25408,0.56645 0.567,0.567 l 26.573,-0.113 v -22.2 c -5.1e-4,-0.25025 -0.10111,-0.4899 -0.27938,-0.66554 -0.17827,-0.17564 -0.41939,-0.27267 -0.66962,-0.26946 l -9.15,0.043 -10.426,0.042 -0.4,-0.736 -0.51,-0.935 c -0.11181,-0.21598 -0.33794,-0.34831 -0.581,-0.34 h -4.462 c -0.38189,0.0109 -0.68452,0.32598 -0.68,0.708 z"
   stroke-linecap="round"
   id="path51" />&#10;</g><g
   transform="matrix(1.4653359,0,0,1.4653359,333.53046,591.58138)"
   id="Path_47507">&#10;<path
   style="opacity:0.95;fill:#ffffff;fill-rule:nonzero;stroke:none;stroke-width:1;stroke-linecap:butt;stroke-linejoin:miter;stroke-miterlimit:4;stroke-dasharray:none;stroke-dashoffset:0"
   vector-effect="non-scaling-stroke"
   transform="translate(-311.3,-648.62)"
   d="m 326.376,639.074 h -28.2 l -1.955,19.094 h 28.2 z"
   stroke-linecap="round"
   id="path52" />&#10;</g><g
   transform="matrix(1.4653359,0,0,1.4653359,335.28886,593.63285)"
   id="Path_47508">&#10;<path
   style="opacity:0.95;fill:#93bbe5;fill-rule:nonzero;stroke:none;stroke-width:1;stroke-linecap:butt;stroke-linejoin:miter;stroke-miterlimit:4;stroke-dasharray:none;stroke-dashoffset:0"
   vector-effect="non-scaling-stroke"
   transform="translate(-312.5,-650.02)"
   d="m 296.588,659.329 28.613,0.114 c 0.37033,0.0136 0.69518,-0.24506 0.765,-0.609 l 2.8,-13.754 0.651,-3.2 c 0.0438,-0.29101 -0.0399,-0.58679 -0.22961,-0.81175 -0.18973,-0.22496 -0.46716,-0.35732 -0.76139,-0.36325 h -0.694 l -27.933,-0.114 c -0.37033,-0.0136 -0.69518,0.24506 -0.765,0.609 l -3.258,16.007 -0.085,0.41 -0.114,0.525 c -0.0408,0.29065 0.0441,0.58491 0.23343,0.80918 0.18933,0.22426 0.4652,0.35729 0.75857,0.36582 z"
   stroke-linecap="round"
   id="path53" />&#10;</g><g
   transform="matrix(1.4653359,0,0,1.4653359,248.18929,645.24198)"
   id="Path_47509">&#10;<path
   style="opacity:0.95;fill:#f89d13;fill-rule:nonzero;stroke:none;stroke-width:1;stroke-linecap:butt;stroke-linejoin:miter;stroke-miterlimit:4;stroke-dasharray:none;stroke-dashoffset:0"
   vector-effect="non-scaling-stroke"
   transform="translate(-253.06,-685.24)"
   d="m 239.476,673.353 v 1.331 l 0.028,22.579 c 5.5e-4,0.31292 0.25408,0.56645 0.567,0.567 l 26.573,-0.113 v -22.2 c -5.1e-4,-0.25025 -0.10111,-0.4899 -0.27938,-0.66554 -0.17827,-0.17564 -0.41939,-0.27267 -0.66962,-0.26946 l -9.151,0.043 -10.425,0.042 -0.4,-0.736 -0.51,-0.935 c -0.11128,-0.21599 -0.33717,-0.34841 -0.58,-0.34 h -4.459 c -0.38189,0.0109 -0.68452,0.32598 -0.68,0.708 z"
   stroke-linecap="round"
   id="path54" />&#10;</g><g
   transform="matrix(1.4653359,0,0,1.4653359,251.25184,648.46572)"
   id="Path_47510">&#10;<path
   style="opacity:0.95;fill:#ffffff;fill-rule:nonzero;stroke:none;stroke-width:1;stroke-linecap:butt;stroke-linejoin:miter;stroke-miterlimit:4;stroke-dasharray:none;stroke-dashoffset:0"
   vector-effect="non-scaling-stroke"
   transform="translate(-255.15,-687.44)"
   d="m 270.227,677.9 h -28.2 l -1.955,19.08 h 28.2 z"
   stroke-linecap="round"
   id="path55" />&#10;</g><g
   transform="matrix(1.4653359,0,0,1.4653359,253.01025,650.50254)"
   id="Path_47511">&#10;<path
   style="opacity:0.95;fill:#f89d13;fill-rule:nonzero;stroke:none;stroke-width:1;stroke-linecap:butt;stroke-linejoin:miter;stroke-miterlimit:4;stroke-dasharray:none;stroke-dashoffset:0"
   vector-effect="non-scaling-stroke"
   transform="translate(-256.35,-688.83)"
   d="m 240.438,698.141 28.613,0.114 c 0.37033,0.0136 0.69518,-0.24506 0.765,-0.609 l 2.8,-13.754 0.652,-3.2 c 0.0435,-0.29112 -0.0404,-0.58688 -0.23033,-0.81179 -0.18989,-0.22491 -0.46738,-0.35724 -0.76167,-0.36321 h -0.694 l -27.933,-0.114 c -0.37033,-0.0136 -0.69518,0.24506 -0.765,0.609 l -3.258,16.007 -0.085,0.411 -0.114,0.524 c -0.0408,0.29065 0.0441,0.58491 0.23343,0.80918 0.18933,0.22426 0.4652,0.35729 0.75857,0.36582 z"
   stroke-linecap="round"
   id="path56" />&#10;</g><g
   transform="matrix(1.4653359,0,0,1.4653359,330.4679,645.24198)"
   id="Path_47512">&#10;<path
   style="opacity:0.95;fill:#93bbe5;fill-rule:nonzero;stroke:none;stroke-width:1;stroke-linecap:butt;stroke-linejoin:miter;stroke-miterlimit:4;stroke-dasharray:none;stroke-dashoffset:0"
   vector-effect="non-scaling-stroke"
   transform="translate(-309.21,-685.24)"
   d="m 295.625,673.353 v 1.331 l 0.028,22.579 c 5.5e-4,0.31292 0.25408,0.56645 0.567,0.567 l 26.573,-0.113 v -22.2 c -5.1e-4,-0.25025 -0.10111,-0.4899 -0.27938,-0.66554 -0.17827,-0.17564 -0.41939,-0.27267 -0.66962,-0.26946 l -9.15,0.043 -10.426,0.042 -0.4,-0.736 -0.51,-0.935 c -0.11181,-0.21598 -0.33794,-0.34831 -0.581,-0.34 h -4.462 c -0.38189,0.0109 -0.68452,0.32598 -0.68,0.708 z"
   stroke-linecap="round"
   id="path57" />&#10;</g><g
   transform="matrix(1.4653359,0,0,1.4653359,333.53046,648.46572)"
   id="Path_47513">&#10;<path
   style="opacity:0.95;fill:#ffffff;fill-rule:nonzero;stroke:none;stroke-width:1;stroke-linecap:butt;stroke-linejoin:miter;stroke-miterlimit:4;stroke-dasharray:none;stroke-dashoffset:0"
   vector-effect="non-scaling-stroke"
   transform="translate(-311.3,-687.44)"
   d="m 326.376,677.9 h -28.2 l -1.955,19.08 h 28.2 z"
   stroke-linecap="round"
   id="path58" />&#10;</g><g
   transform="matrix(1.4653359,0,0,1.4653359,335.28886,650.50254)"
   id="Path_47514">&#10;<path
   style="opacity:0.95;fill:#93bbe5;fill-rule:nonzero;stroke:none;stroke-width:1;stroke-linecap:butt;stroke-linejoin:miter;stroke-miterlimit:4;stroke-dasharray:none;stroke-dashoffset:0"
   vector-effect="non-scaling-stroke"
   transform="translate(-312.5,-688.83)"
   d="m 296.588,698.141 28.613,0.114 c 0.37033,0.0136 0.69518,-0.24506 0.765,-0.609 l 2.8,-13.754 0.651,-3.2 c 0.0438,-0.29101 -0.0399,-0.58679 -0.22961,-0.81175 -0.18973,-0.22496 -0.46716,-0.35732 -0.76139,-0.36325 h -0.694 L 299.8,679.4 c -0.37033,-0.0136 -0.69518,0.24506 -0.765,0.609 l -3.258,16.007 -0.085,0.411 -0.114,0.524 c -0.0408,0.29065 0.0441,0.58491 0.23343,0.80918 0.18933,0.22426 0.4652,0.35729 0.75857,0.36582 z"
   stroke-linecap="round"
   id="path59" />&#10;</g><g
   transform="matrix(1.4653359,0,0,1.4653359,154.75947,547.66526)"
   id="Path_47515">&#10;<path
   style="opacity:0.95;fill:#93bbe5;fill-rule:nonzero;stroke:none;stroke-width:1;stroke-linecap:butt;stroke-linejoin:miter;stroke-miterlimit:4;stroke-dasharray:none;stroke-dashoffset:0"
   vector-effect="non-scaling-stroke"
   transform="translate(-189.3,-618.65)"
   d="m 208.765,621.2 h -38.939 c -1.40833,0 -2.55,-1.14167 -2.55,-2.55 0,-1.40833 1.14167,-2.55 2.55,-2.55 h 38.939 c 1.40833,0 2.55,1.14167 2.55,2.55 0,1.40833 -1.14167,2.55 -2.55,2.55 z"
   stroke-linecap="round"
   id="path60" />&#10;</g><g
   transform="matrix(1.4653359,0,0,1.4653359,154.75947,574.42229)"
   id="Path_47516">&#10;<path
   style="opacity:0.95;fill:#93bbe5;fill-rule:nonzero;stroke:none;stroke-width:1;stroke-linecap:butt;stroke-linejoin:miter;stroke-miterlimit:4;stroke-dasharray:none;stroke-dashoffset:0"
   vector-effect="non-scaling-stroke"
   transform="translate(-189.3,-636.91)"
   d="m 208.765,639.456 h -38.939 c -1.40833,0 -2.55,-1.14167 -2.55,-2.55 0,-1.40833 1.14167,-2.55 2.55,-2.55 h 38.939 c 1.40833,0 2.55,1.14167 2.55,2.55 0,1.40833 -1.14167,2.55 -2.55,2.55 z"
   stroke-linecap="round"
   id="path61" />&#10;</g><g
   transform="matrix(1.4653359,0,0,1.4653359,154.75947,601.17933)"
   id="Path_47517">&#10;<path
   style="opacity:0.95;fill:#93bbe5;fill-rule:nonzero;stroke:none;stroke-width:1;stroke-linecap:butt;stroke-linejoin:miter;stroke-miterlimit:4;stroke-dasharray:none;stroke-dashoffset:0"
   vector-effect="non-scaling-stroke"
   transform="translate(-189.3,-655.16)"
   d="m 208.765,657.715 h -38.939 c -1.40833,0 -2.55,-1.14167 -2.55,-2.55 0,-1.40833 1.14167,-2.55 2.55,-2.55 h 38.939 c 1.40833,0 2.55,1.14167 2.55,2.55 0,1.40833 -1.14167,2.55 -2.55,2.55 z"
   stroke-linecap="round"
   id="path62" />&#10;</g><g
   transform="matrix(1.4653359,0,0,1.4653359,154.75947,627.92171)"
   id="Path_47518">&#10;<path
   style="opacity:0.95;fill:#93bbe5;fill-rule:nonzero;stroke:none;stroke-width:1;stroke-linecap:butt;stroke-linejoin:miter;stroke-miterlimit:4;stroke-dasharray:none;stroke-dashoffset:0"
   vector-effect="non-scaling-stroke"
   transform="translate(-189.3,-673.42)"
   d="m 208.765,675.974 h -38.939 c -1.40833,0 -2.55,-1.14167 -2.55,-2.55 0,-1.40833 1.14167,-2.55 2.55,-2.55 h 38.939 c 1.40833,0 2.55,1.14167 2.55,2.55 0,1.40833 -1.14167,2.55 -2.55,2.55 z"
   stroke-linecap="round"
   id="path63" />&#10;</g><g
   transform="matrix(1.4653359,0,0,1.4653359,154.75947,654.67874)"
   id="Path_47519">&#10;<path
   style="opacity:0.95;fill:#93bbe5;fill-rule:nonzero;stroke:none;stroke-width:1;stroke-linecap:butt;stroke-linejoin:miter;stroke-miterlimit:4;stroke-dasharray:none;stroke-dashoffset:0"
   vector-effect="non-scaling-stroke"
   transform="translate(-189.3,-691.68)"
   d="m 208.765,694.232 h -38.939 c -1.40833,0 -2.55,-1.14167 -2.55,-2.55 0,-1.40833 1.14167,-2.55 2.55,-2.55 h 38.939 c 1.40833,0 2.55,1.14167 2.55,2.55 0,1.40833 -1.14167,2.55 -2.55,2.55 z"
   stroke-linecap="round"
   id="path64" />&#10;</g><g
   transform="matrix(1.4653359,0,0,1.4653359,289.49711,547.66526)"
   id="Path_47520">&#10;<path
   style="opacity:0.95;fill:#93bbe5;fill-rule:nonzero;stroke:none;stroke-width:1;stroke-linecap:butt;stroke-linejoin:miter;stroke-miterlimit:4;stroke-dasharray:none;stroke-dashoffset:0"
   vector-effect="non-scaling-stroke"
   transform="translate(-281.25,-618.65)"
   d="M 332.284,621.2 H 230.225 c -1.40833,0 -2.55,-1.14167 -2.55,-2.55 0,-1.40833 1.14167,-2.55 2.55,-2.55 h 102.059 c 1.40833,0 2.55,1.14167 2.55,2.55 0,1.40833 -1.14167,2.55 -2.55,2.55 z"
   stroke-linecap="round"
   id="path65" />&#10;</g><g
   transform="matrix(1.4653359,0,0,1.4653359,106.79903,517.87498)"
   id="Path_47521">&#10;<path
   style="opacity:0.95;fill:#93bbe5;fill-rule:nonzero;stroke:none;stroke-width:1;stroke-linecap:butt;stroke-linejoin:miter;stroke-miterlimit:4;stroke-dasharray:none;stroke-dashoffset:0"
   vector-effect="non-scaling-stroke"
   transform="translate(-156.57,-598.32)"
   d="m 172.432,586.253 -10.638,-10.7 -20.936,-0.057 -0.141,45.583 31.616,0.071 z"
   stroke-linecap="round"
   id="path66" />&#10;</g><g
   transform="matrix(1.4653359,0,0,1.4653359,122.24367,492.34883)"
   id="Path_47522">&#10;<path
   style="opacity:0.95;fill:#ffffff;fill-rule:nonzero;stroke:none;stroke-width:1;stroke-linecap:butt;stroke-linejoin:miter;stroke-miterlimit:4;stroke-dasharray:none;stroke-dashoffset:0"
   vector-effect="non-scaling-stroke"
   transform="translate(-167.11,-580.9)"
   d="m 161.766,586.224 10.68,0.029 -10.637,-10.7 z"
   stroke-linecap="round"
   id="path67" />&#10;</g><g
   transform="matrix(1.4653359,0,0,1.4653359,106.75507,520.10229)"
   id="Path_47523">&#10;<path
   style="opacity:0.95;fill:#f89d13;fill-rule:nonzero;stroke:none;stroke-width:1;stroke-linecap:butt;stroke-linejoin:miter;stroke-miterlimit:4;stroke-dasharray:none;stroke-dashoffset:0"
   vector-effect="non-scaling-stroke"
   transform="translate(-156.54,-599.84)"
   d="m 164.551,601.578 c 0.95977,-4.42541 -1.84933,-8.79107 -6.27461,-9.75144 -4.42529,-0.96038 -8.79133,1.84812 -9.75231,6.27327 -0.96099,4.42514 1.8469,8.79157 6.27192,9.75317 2.12575,0.46195 4.34794,0.0603 6.17748,-1.11658 1.82953,-1.17687 3.11645,-3.03248 3.57752,-5.15842 z"
   stroke-linecap="round"
   id="path68" />&#10;</g><g
   transform="matrix(1.4653359,0,0,1.4653359,107.98595,520.74704)"
   id="Path_47524">&#10;<path
   style="opacity:0.95;fill:#ffffff;fill-rule:nonzero;stroke:none;stroke-width:1;stroke-linecap:butt;stroke-linejoin:miter;stroke-miterlimit:4;stroke-dasharray:none;stroke-dashoffset:0"
   vector-effect="non-scaling-stroke"
   transform="translate(-157.38,-600.28)"
   d="m 154.287,603.151 -1.388,-3.215 c -0.11173,-0.27576 0.0165,-0.59034 0.28924,-0.70934 0.2727,-0.119 0.59057,8.9e-4 0.71676,0.27034 l 0.878,2.04 6.275,-4.037 c 0.25405,-0.16044 0.59006,-0.0846 0.7505,0.1695 0.16044,0.25405 0.0845,0.59006 -0.1695,0.7505 l -7.352,4.717 z"
   stroke-linecap="round"
   id="path69" />&#10;</g><g
   transform="matrix(1.4653359,0,0,1.4653359,340.08051,223.78206)"
   id="Path_47525">&#10;<path
   style="opacity:0.95;fill:#5c93bc;fill-rule:evenodd;stroke:none;stroke-width:1;stroke-linecap:butt;stroke-linejoin:miter;stroke-miterlimit:4;stroke-dasharray:none;stroke-dashoffset:0"
   vector-effect="non-scaling-stroke"
   transform="translate(-315.77,-397.62)"
   d="m 239.282,447.181 5.241,-4.759 1.233,-4.278 c 4.40324,-13.53566 12.94486,-25.34737 24.42,-33.769 l 2.8,-1.941 -5.241,4.76 -2.8,1.94 c -12.71694,9.31167 -21.78875,22.76644 -25.653,38.047 z m 118.788,-26.941 5.241,-4.76 0.51,-29.392 -5.241,4.759 z m 31.375,-39.592 c -2.833,-2.691 -5.383,-5.127 -8.442,-7.62 -37.792,-30.781 -92.88,-33.954 -132.315,-4.76 3.286,-1.827 6.261,-3.484 9.7,-5.085 40.356,-18.641 88.63,-11.544 121.663,18.287 l 4.136,3.938 2.833,2.833 5.241,-4.76 -2.833,-2.833 z"
   stroke-linecap="round"
   id="path70" />&#10;</g><g
   transform="matrix(1.4653359,0,0,1.4653359,502.16131,301.38625)"
   id="Path_47526">&#10;<path
   style="opacity:0.95;fill:#ff7200;fill-rule:evenodd;stroke:none;stroke-width:1;stroke-linecap:butt;stroke-linejoin:miter;stroke-miterlimit:4;stroke-dasharray:none;stroke-dashoffset:0"
   vector-effect="non-scaling-stroke"
   transform="translate(-426.38,-450.58)"
   d="m 350.689,515.428 5.241,-4.759 c -6.80973,6.02116 -14.76353,10.60754 -23.386,13.485 l -0.935,0.311 -5.241,4.76 c 8.98577,-2.84041 17.2726,-7.54143 24.321,-13.797 z M 517.708,410.3 l 5.241,-4.76 3.442,-26.205 -30.426,-7.408 -5.241,4.759 30.426,7.409 z"
   stroke-linecap="round"
   id="path71" />&#10;</g><g
   transform="matrix(1.4653359,0,0,1.4653359,597.73052,191.69121)"
   id="Path_47527">&#10;<path
   style="opacity:0.95;fill:#5c93bc;fill-rule:evenodd;stroke:none;stroke-width:1;stroke-linecap:butt;stroke-linejoin:miter;stroke-miterlimit:4;stroke-dasharray:none;stroke-dashoffset:0"
   vector-effect="non-scaling-stroke"
   transform="translate(-491.6,-375.72)"
   d="m 490.724,376.682 5.227,-4.773 -0.312,0.255 -0.326,0.255 -0.311,0.255 -0.312,0.255 -0.326,0.254 -0.311,0.27 -0.312,0.255 -0.326,0.269 -0.311,0.255 -0.312,0.269 -0.311,0.269 -5.241,4.759 0.311,-0.269 0.312,-0.255 0.326,-0.269 0.311,-0.269 0.312,-0.255 0.311,-0.255 0.326,-0.255 0.312,-0.269 0.311,-0.255 0.326,-0.241 z"
   stroke-linecap="round"
   id="path72" />&#10;</g><g
   transform="matrix(1.4653359,0,0,1.4653359,725.46385,378.60946)"
   id="Path_47528">&#10;<path
   style="opacity:0.95;fill:#5c93bc;fill-rule:evenodd;stroke:none;stroke-width:1;stroke-linecap:butt;stroke-linejoin:miter;stroke-miterlimit:4;stroke-dasharray:none;stroke-dashoffset:0"
   vector-effect="non-scaling-stroke"
   transform="translate(-578.77,-503.28)"
   d="m 517.61,508.8 -26.531,2.422 -5.241,4.759 26.531,-2.422 c 3.28237,3.12333 6.85901,5.92201 10.68,8.357 29.551,18.684 69.238,12.025 90.751,-15.922 l 0.751,-0.991 5.241,-4.76 c -10.7166,14.42842 -26.71598,24.02007 -44.492,26.673 -19.81091,3.01689 -39.95248,-2.75558 -55.158,-15.808 l -2.535,-2.323 z m 134.368,17.96 c 10.327,-9.391 15.738,-22.352 19.732,-35.54 l -25.723,10.17 -14.378,-27.281 -5.241,4.759 14.378,27.282 25.723,-10.171 -1.544,4.831 c -3.15745,9.18099 -7.51056,17.90605 -12.947,25.95 z"
   stroke-linecap="round"
   id="path73" />&#10;</g><g
   transform="matrix(1.4653359,0,0,1.4653359,737.28912,253.96798)"
   id="Path_47529">&#10;<path
   style="opacity:0.95;fill:#236cd8;fill-rule:evenodd;stroke:none;stroke-width:1;stroke-linecap:butt;stroke-linejoin:miter;stroke-miterlimit:4;stroke-dasharray:none;stroke-dashoffset:0"
   vector-effect="non-scaling-stroke"
   transform="translate(-586.84,-418.22)"
   d="m 668.4,488.444 5.242,-4.76 1.274,-6.785 C 681.75977,433.95825 662.98596,390.96137 626.83956,366.79149 590.69316,342.62161 543.78542,341.69945 506.717,364.43 l -4.108,2.634 -5.241,4.76 c 4.04626,-2.67999 8.24613,-5.12051 12.578,-7.309 41.008,-20.341 91.024,-13.556 124.921,17.422 28.49574,26.12779 41.44287,65.14019 34.223,103.121 z"
   stroke-linecap="round"
   id="path74" />&#10;</g><g
   transform="matrix(1.4653359,0,0,1.4653359,519.61346,322.92669)"
   id="Path_47530">&#10;<path
   style="opacity:0.95;fill:#5c93bc;fill-rule:evenodd;stroke:none;stroke-width:1;stroke-linecap:butt;stroke-linejoin:miter;stroke-miterlimit:4;stroke-dasharray:none;stroke-dashoffset:0"
   vector-effect="non-scaling-stroke"
   transform="translate(-438.29,-465.28)"
   d="m 506.561,507.779 5.241,-4.76 -43.802,-43.755 -4.986,4.986 43.543,43.543 z m -27.452,33.514 5.241,-4.759 0.538,-31.05 -5.241,4.759 z m -81.038,-152 -28.06,2.564 -5.241,4.759 28.06,-2.564 39.705,39.7 5,-5 -39.478,-39.478 z"
   stroke-linecap="round"
   id="path75" />&#10;</g><g
   transform="matrix(1.4653359,0,0,1.4653359,283.03498,372.00079)"
   id="Path_47531">&#10;<path
   style="opacity:0.95;fill:#236cd8;fill-rule:evenodd;stroke:none;stroke-width:1;stroke-linecap:butt;stroke-linejoin:miter;stroke-miterlimit:4;stroke-dasharray:none;stroke-dashoffset:0"
   vector-effect="non-scaling-stroke"
   transform="translate(-276.84,-498.77)"
   d="m 346.058,567.966 5.241,-4.76 4.306,-25.4 -37.183,-10.536 c -11.99314,1.3676 -24.13521,-0.43471 -35.214,-5.227 -27.47831,-11.99393 -43.87672,-40.55116 -40.385,-70.329 l 0.241,-1.941 -24.094,9.519 -15.653,-29.718 -5.241,4.76 15.653,29.718 24.094,-9.519 c -0.212,0.425 -0.623,6.785 -0.651,7.762 -0.61599,19.47212 7.14437,38.27424 21.31516,51.64329 14.1708,13.36905 33.39253,20.02245 52.79584,18.27471 l 1.884,-0.184 37.183,10.539 -4.307,25.4 z"
   stroke-linecap="round"
   id="path76" />&#10;</g><g
   transform="matrix(1.4653359,0,0,1.4653359,308.06292,233.90753)"
   id="Path_47532">&#10;<path
   style="opacity:0.95;fill:#71a3d1;fill-rule:evenodd;stroke:none;stroke-width:1;stroke-linecap:butt;stroke-linejoin:miter;stroke-miterlimit:4;stroke-dasharray:none;stroke-dashoffset:0"
   vector-effect="non-scaling-stroke"
   transform="translate(-293.92,-404.53)"
   d="m 257.045,415.9 c 26.76464,-26.53094 69.91136,-26.53094 96.676,0 l 4.349,4.349 0.51,-29.393 28.471,-2.592 -2.833,-2.833 c -43.344,-43.345 -114.282,-43.345 -157.641,0 -11.46647,11.44327 -20.27321,25.27048 -25.795,40.5 l 15.907,30.2 22.611,-8.931 c 2.98756,-11.8383 9.12591,-22.64632 17.763,-31.276"
   stroke-linecap="round"
   id="path77" />&#10;</g><g
   transform="matrix(1.4653359,0,0,1.4653359,276.22117,381.07122)"
   id="Path_47533">&#10;<path
   style="opacity:0.95;fill:#357ded;fill-rule:evenodd;stroke:none;stroke-width:1;stroke-linecap:butt;stroke-linejoin:miter;stroke-miterlimit:4;stroke-dasharray:none;stroke-dashoffset:0"
   vector-effect="non-scaling-stroke"
   transform="translate(-272.19,-504.96)"
   d="m 257.045,512.581 c -15.17168,-15.2483 -22.28669,-36.74522 -19.208,-58.034 l -24.094,9.519 -15.652,-29.718 c -10.75031,38.7218 0.12107,80.23394 28.471,108.716 32.155,32.154 79.494,40.455 119.5,24.916 l 4.306,-25.4 -37.183,-10.539 c -20.69765,2.4078 -41.3639,-4.7519 -56.136,-19.448"
   stroke-linecap="round"
   id="path78" />&#10;</g><g
   transform="matrix(1.4653359,0,0,1.4653359,565.41987,377.84748)"
   id="Path_47534">&#10;<path
   style="opacity:0.95;fill:#71a3d1;fill-rule:evenodd;stroke:none;stroke-width:1;stroke-linecap:butt;stroke-linejoin:miter;stroke-miterlimit:4;stroke-dasharray:none;stroke-dashoffset:0"
   vector-effect="non-scaling-stroke"
   transform="translate(-469.55,-502.76)"
   d="m 432.535,494.733 46.574,46.56 0.538,-31.05 26.914,-2.464 -43.543,-43.543 z"
   stroke-linecap="round"
   id="path79" />&#10;</g><g
   transform="matrix(1.4653359,0,0,1.4653359,461.14656,269.9841)"
   id="Path_47535">&#10;<path
   style="opacity:0.95;fill:#71a3d1;fill-rule:evenodd;stroke:none;stroke-width:1;stroke-linecap:butt;stroke-linejoin:miter;stroke-miterlimit:4;stroke-dasharray:none;stroke-dashoffset:0"
   vector-effect="non-scaling-stroke"
   transform="translate(-398.39,-429.15)"
   d="m 432.535,433.753 -39.7,-39.7 -28.061,2.564 -0.524,29.817 37.806,37.821 z"
   stroke-linecap="round"
   id="path80" />&#10;</g><g
   transform="matrix(1.4653359,0,0,1.4653359,733.46459,264.7382)"
   id="Path_47536">&#10;<path
   style="opacity:0.95;fill:#357ded;fill-rule:evenodd;stroke:none;stroke-width:1;stroke-linecap:butt;stroke-linejoin:miter;stroke-miterlimit:4;stroke-dasharray:none;stroke-dashoffset:0"
   vector-effect="non-scaling-stroke"
   transform="translate(-584.23,-425.57)"
   d="m 524.677,405.55 c 26.22,-15.553 60.91,-12.1 83.361,10.355 13.73664,13.78794 20.93599,32.78298 19.789,52.212 l 15.85,30.1 24.732,-9.773 c 8.26495,-37.19076 -3.00247,-76.02885 -29.888,-103.022 -38.2,-38.2 -97.837,-42.736 -141.139,-13.6 l 30.738,7.478 z"
   stroke-linecap="round"
   id="path81" />&#10;</g><g
   transform="matrix(1.4653359,0,0,1.4653359,721.22903,413.70425)"
   id="Path_47537">&#10;<path
   style="opacity:0.95;fill:#71a3d1;fill-rule:evenodd;stroke:none;stroke-width:1;stroke-linecap:butt;stroke-linejoin:miter;stroke-miterlimit:4;stroke-dasharray:none;stroke-dashoffset:0"
   vector-effect="non-scaling-stroke"
   transform="translate(-575.88,-527.23)"
   d="m 608.039,512.581 c -26.191,26.191 -69.055,26.517 -95.67,0.991 l -26.531,2.422 -0.539,31.248 c 43.628,39.124 111.308,37.722 153.223,-4.178 13.11978,-13.09482 22.73093,-29.28249 27.947,-47.07 l -25.724,10.17 -14.377,-27.282 c -2.73569,12.76824 -9.10031,24.47486 -18.329,33.713"
   stroke-linecap="round"
   id="path82" />&#10;</g><g
   transform="matrix(1.4653359,0,0,1.4653359,498.32213,331.10327)"
   id="Path_47538">&#10;<path
   style="opacity:0.95;fill:#ffa000;fill-rule:evenodd;stroke:none;stroke-width:1;stroke-linecap:butt;stroke-linejoin:miter;stroke-miterlimit:4;stroke-dasharray:none;stroke-dashoffset:0"
   vector-effect="non-scaling-stroke"
   transform="translate(-423.76,-470.86)"
   d="m 384.2,543.064 48.331,-48.331 30.483,-30.483 48.331,-48.331 c 2.0003,-2.00116 4.1245,-3.87453 6.36,-5.609 l 3.442,-26.2 -30.422,-7.41 c -3.45032,2.71763 -6.73768,5.63601 -9.845,8.74 l -48.331,48.331 -30.483,30.479 -48.331,48.331 c -7.65091,7.66087 -17.03201,13.36938 -27.352,16.644 l 31.149,8.824 -4.562,26.97 c 11.6148,-5.45041 22.19311,-12.87945 31.262,-21.955"
   stroke-linecap="round"
   id="path83" />&#10;</g><g
   transform="matrix(1.4653359,0,0,1.4653359,494.14593,804.68518)"
   id="Path_47539">&#10;<path
   style="opacity:0.95;fill:#bccddd;fill-rule:nonzero;stroke:none;stroke-width:1;stroke-linecap:butt;stroke-linejoin:miter;stroke-miterlimit:4;stroke-dasharray:none;stroke-dashoffset:0"
   vector-effect="non-scaling-stroke"
   transform="translate(-420.91,-794.05)"
   d="m 420.914,810.314 c 74.64,0 135.147,-7.281 135.147,-16.262 0,-8.981 -60.507,-16.261 -135.147,-16.261 -74.64,0 -135.148,7.28 -135.148,16.261 0,8.981 60.508,16.262 135.148,16.262 z"
   stroke-linecap="round"
   id="path84" />&#10;</g><g
   transform="matrix(1.4653359,0,0,1.4653359,579.99996,694.71172)"
   id="Path_47540">&#10;<path
   style="opacity:0.95;fill:#ffffff;fill-rule:nonzero;stroke:none;stroke-width:1;stroke-linecap:butt;stroke-linejoin:miter;stroke-miterlimit:4;stroke-dasharray:none;stroke-dashoffset:0"
   vector-effect="non-scaling-stroke"
   transform="translate(-479.5,-719)"
   d="m 428.549,716.145 22.1,19.987 17.962,-12.876 10.878,12.876 c 22.239,-5.652 38.076,-12.734 50.952,-20.468 l -14.052,-8.641 -46.475,-5.156 z"
   stroke-linecap="round"
   id="path85" />&#10;</g><g
   transform="matrix(1.4653359,0,0,1.4653359,574.18257,575.7704)"
   id="Path_47541">&#10;<path
   style="opacity:0.95;fill:#f89d13;fill-rule:nonzero;stroke:none;stroke-width:1;stroke-linecap:butt;stroke-linejoin:miter;stroke-miterlimit:4;stroke-dasharray:none;stroke-dashoffset:0"
   vector-effect="non-scaling-stroke"
   transform="translate(-475.53,-637.83)"
   d="m 398.363,642.459 q 13.514,1.254 27.041,2.522 l 7.493,-27.749 1.346,47.2 -4.547,49.9 c 2.323,17.324 99.579,11.077 100.741,1.332 2.224,-18.684 -0.071,-33.869 0,-39.846 6.4,-0.624 22.749,-5.61 22.253,-18.712 -1.048,-28.245 -8.4,-84.806 -27.48,-96.251 -9.405,-5.411 -30.412,-10.2 -30.412,-10.2 l -34.222,-0.226 c -9.307,1.317 -23.911,4.986 -33.614,16.856 -3.80018,4.8041 -6.5587,10.34667 -8.1,16.275 -4.236,13.854 -10.525,32.651 -20.511,58.912 z"
   stroke-linecap="round"
   id="path86" />&#10;</g><g
   transform="matrix(1.4653359,0,0,1.4653359,559.80763,465.70902)"
   id="Path_47542">&#10;<path
   style="opacity:0.95;fill:#ffffff;fill-rule:nonzero;stroke:none;stroke-width:1;stroke-linecap:butt;stroke-linejoin:miter;stroke-miterlimit:4;stroke-dasharray:none;stroke-dashoffset:0"
   vector-effect="non-scaling-stroke"
   transform="translate(-465.72,-562.72)"
   d="m 473.565,569.595 -7.847,9.844 c -7.593,-9.278 -7.876,-19.505 -7.848,-27.834 l 3.372,-5.595 0.68,4.589 c 2.025,8.089 11.657,19 11.657,19 z"
   stroke-linecap="round"
   id="path87" />&#10;</g><g
   transform="matrix(1.4653359,0,0,1.4653359,602.43425,641.91567)"
   id="Path_47543">&#10;<path
   style="opacity:0.95;fill:#f89d13;fill-rule:nonzero;stroke:none;stroke-width:1;stroke-linecap:butt;stroke-linejoin:miter;stroke-miterlimit:4;stroke-dasharray:none;stroke-dashoffset:0"
   vector-effect="non-scaling-stroke"
   transform="translate(-494.81,-682.97)"
   d="m 530.437,675.818 -55.824,5.85 -16.119,8.456 72.638,-1.614 z"
   stroke-linecap="round"
   id="path88" />&#10;</g><g
   transform="matrix(1.4653359,0,0,1.4653359,545.34476,624.78589)"
   id="Path_47544">&#10;<path
   style="opacity:0.95;fill:#a36d4f;fill-rule:nonzero;stroke:none;stroke-width:1;stroke-linecap:butt;stroke-linejoin:miter;stroke-miterlimit:4;stroke-dasharray:none;stroke-dashoffset:0"
   vector-effect="non-scaling-stroke"
   transform="translate(-455.85,-671.28)"
   d="m 449.314,660.789 c 3.627,-1.19 6.148,2.464 9.179,1.685 3.031,-0.779 7.918,-2.493 9.647,-1.685 3.073,1.43 5.241,16.828 0,18.853 -5.241,2.025 -19.987,2.366 -19.987,2.366 0,0 -8.244,-5.44 -7.748,-6.19 0.496,-0.75 8.909,-15.029 8.909,-15.029 z"
   stroke-linecap="round"
   id="path89" />&#10;</g><g
   transform="matrix(1.4653359,0,0,1.4653359,587.3999,464.99101)"
   id="Path_47545">&#10;<path
   style="opacity:0.95;fill:#ffffff;fill-rule:nonzero;stroke:none;stroke-width:1;stroke-linecap:butt;stroke-linejoin:miter;stroke-miterlimit:4;stroke-dasharray:none;stroke-dashoffset:0"
   vector-effect="non-scaling-stroke"
   transform="translate(-484.55,-562.23)"
   d="m 476.71,569.1 7.847,9.845 c 7.593,-9.278 7.876,-19.506 7.848,-27.835 l -3.372,-5.6 -0.68,4.59 c -2.025,8.092 -11.653,19 -11.653,19 z"
   stroke-linecap="round"
   id="path90" />&#10;</g><g
   transform="matrix(1.4653359,0,0,1.4653359,594.74124,589.01704)"
   id="Path_47546">&#10;<path
   style="opacity:0.95;fill:none;fill-rule:nonzero;stroke:#d17e11;stroke-width:1.54;stroke-linecap:butt;stroke-linejoin:miter;stroke-miterlimit:10;stroke-dasharray:none;stroke-dashoffset:0"
   vector-effect="non-scaling-stroke"
   transform="translate(-489.56,-646.87)"
   d="m 510.974,591.876 v 49.252 l -42.82,19.661 c 0,0 9.688,25.865 1.756,41.078"
   stroke-linecap="round"
   id="path91" />&#10;</g><g
   transform="matrix(1.4653359,0,0,1.4653359,571.29586,395.5927)"
   id="Path_47547">&#10;<path
   style="opacity:0.95;fill:#363435;fill-rule:nonzero;stroke:none;stroke-width:1;stroke-linecap:butt;stroke-linejoin:miter;stroke-miterlimit:4;stroke-dasharray:none;stroke-dashoffset:0"
   vector-effect="non-scaling-stroke"
   transform="translate(-473.56,-514.87)"
   d="m 456.3,511.83 c 0,0 -5.581,-5 -3.371,-8.074 16.176,-22.593 58.643,-5.482 34.548,30.441 -8.768,9.745 -25.114,-19.491 -31.177,-22.353 z"
   stroke-linecap="round"
   id="path92" />&#10;</g><g
   transform="matrix(1.4653359,0,0,1.4653359,573.28872,428.09385)"
   id="Path_47548">&#10;<path
   style="opacity:0.95;fill:#a66534;fill-rule:nonzero;stroke:none;stroke-width:1;stroke-linecap:butt;stroke-linejoin:miter;stroke-miterlimit:4;stroke-dasharray:none;stroke-dashoffset:0"
   vector-effect="non-scaling-stroke"
   transform="translate(-474.92,-537.05)"
   d="m 456.142,506.717 c 0,0 -1.586,17.947 0.085,25.284 1.559,6.813 6.431,10.666 8.145,10.893 l -2.493,14.59 c 0,0 10.7,10.142 13.641,10.708 2.941,0.566 12.536,-12.706 12.536,-12.706 l -1.643,-25.865 c 1.119,-0.765 9.037,-2.351 7.833,-8.385 -0.807,-4.023 -5.921,-3.046 -8.442,-1.332 0.156,-2.04 -2.521,-3.159 -3.7,-9.83 -1.179,-6.671 -15.482,-3.372 -25.993,-3.372 z"
   stroke-linecap="round"
   id="path93" />&#10;</g><g
   transform="matrix(1.4653359,0,0,1.4653359,572.51209,434.38014)"
   id="Path_47549">&#10;<path
   style="opacity:0.95;fill:#965b2f;fill-rule:nonzero;stroke:none;stroke-width:1;stroke-linecap:butt;stroke-linejoin:miter;stroke-miterlimit:4;stroke-dasharray:none;stroke-dashoffset:0"
   vector-effect="non-scaling-stroke"
   transform="translate(-474.39,-541.34)"
   d="m 464.386,542.894 c 0,0 13.528,5.2 20.837,-8.244 0,0 -1.643,16.516 -21.672,12.862 z"
   stroke-linecap="round"
   id="path94" />&#10;</g><g
   transform="matrix(1.4653359,0,0,1.4653359,594.91708,408.38508)"
   id="Path_47550">&#10;<path
   style="opacity:0.95;fill:#754725;fill-rule:nonzero;stroke:none;stroke-width:1;stroke-linecap:butt;stroke-linejoin:miter;stroke-miterlimit:4;stroke-dasharray:none;stroke-dashoffset:0"
   vector-effect="non-scaling-stroke"
   transform="translate(-489.68,-523.6)"
   d="m 487.107,525.117 c -0.1855,-9e-4 -0.35264,-0.11219 -0.425,-0.283 -0.0479,-0.11247 -0.0477,-0.23961 4.2e-4,-0.35196 0.0482,-0.11235 0.14012,-0.20015 0.25458,-0.24304 l 5.142,-2.111 c 0.1132,-0.0477 0.24091,-0.0476 0.35398,5e-4 0.11306,0.048 0.20182,0.13987 0.24602,0.2545 0.0492,0.11305 0.0498,0.24137 0.002,0.35485 -0.0482,0.11347 -0.141,0.20212 -0.25655,0.24515 l -5.142,2.11 c -0.0575,0.0131 -0.11607,0.0212 -0.175,0.024 z"
   stroke-linecap="round"
   id="path95" />&#10;</g><g
   transform="matrix(1.4653359,0,0,1.4653359,560.18862,406.99301)"
   id="Path_47551">&#10;<path
   style="opacity:0.95;fill:#754725;fill-rule:nonzero;stroke:none;stroke-width:1;stroke-linecap:butt;stroke-linejoin:miter;stroke-miterlimit:4;stroke-dasharray:none;stroke-dashoffset:0"
   vector-effect="non-scaling-stroke"
   transform="translate(-465.98,-522.65)"
   d="m 467.375,527.723 c -1.289,0 -3.683,-0.184 -3.881,-1.572 -0.212,-1.445 2.352,-7.168 2.861,-8.3 0.0651,-0.1546 0.2092,-0.2615 0.37603,-0.27898 0.16684,-0.0175 0.32996,0.0573 0.42568,0.19502 0.0957,0.13776 0.10886,0.3167 0.0343,0.46696 -1.147,2.535 -2.918,6.884 -2.79,7.79 0.085,0.567 1.969,0.864 3.6,0.779 0.24958,-0.0137 0.46387,0.17563 0.481,0.425 0.008,0.24791 -0.17798,0.45935 -0.425,0.482 -0.143,-0.001 -0.37,0.013 -0.682,0.013 z"
   stroke-linecap="round"
   id="path96" />&#10;</g><g
   transform="matrix(1.4653359,0,0,1.4653359,552.94986,402.52374)"
   id="Path_47552">&#10;<path
   style="opacity:0.95;fill:#363435;fill-rule:nonzero;stroke:none;stroke-width:1;stroke-linecap:butt;stroke-linejoin:miter;stroke-miterlimit:4;stroke-dasharray:none;stroke-dashoffset:0"
   vector-effect="non-scaling-stroke"
   transform="translate(-461.04,-519.6)"
   d="m 459.684,519.677 c 0.0421,0.72952 0.65581,1.29383 1.38629,1.27464 0.73049,-0.0192 1.31375,-0.61495 1.31745,-1.34568 0.004,-0.73073 -0.57349,-1.33236 -1.30374,-1.35896 -0.7801,0.0115 -1.40503,0.64983 -1.4,1.43 z"
   stroke-linecap="round"
   id="path97" />&#10;</g><g
   transform="matrix(1.4653359,0,0,1.4653359,571.35448,394.44974)"
   id="Path_47553">&#10;<path
   style="opacity:0.95;fill:#754725;fill-rule:nonzero;stroke:none;stroke-width:1;stroke-linecap:butt;stroke-linejoin:miter;stroke-miterlimit:4;stroke-dasharray:none;stroke-dashoffset:0"
   vector-effect="non-scaling-stroke"
   transform="translate(-473.6,-514.09)"
   d="m 476.285,515.23 c -0.16383,-6.1e-4 -0.31547,-0.0867 -0.4,-0.227 -0.3074,-0.55154 -0.83063,-0.95012 -1.444,-1.1 -1.13709,-0.125 -2.28256,0.14513 -3.244,0.765 -0.21511,0.13807 -0.50143,0.0756 -0.6395,-0.1395 -0.13807,-0.21511 -0.0756,-0.50143 0.1395,-0.6395 1.17225,-0.75033 2.57231,-1.06138 3.952,-0.878 0.8541,0.19973 1.58451,0.75008 2.012,1.516 0.12613,0.21553 0.0568,0.49235 -0.156,0.623 -0.0727,0.0445 -0.15582,0.069 -0.241,0.071 z"
   stroke-linecap="round"
   id="path98" />&#10;</g><g
   transform="matrix(1.4653359,0,0,1.4653359,552.78867,393.3947)"
   id="Path_47554">&#10;<path
   style="opacity:0.95;fill:#754725;fill-rule:nonzero;stroke:none;stroke-width:1;stroke-linecap:butt;stroke-linejoin:miter;stroke-miterlimit:4;stroke-dasharray:none;stroke-dashoffset:0"
   vector-effect="non-scaling-stroke"
   transform="translate(-460.93,-513.37)"
   d="m 462.743,514.266 c -0.1104,-2e-5 -0.21702,-0.0402 -0.3,-0.113 -0.54022,-0.48078 -1.23217,-0.7565 -1.955,-0.779 -0.4202,0.0544 -0.79421,0.29347 -1.02,0.652 -0.14884,0.20324 -0.43426,0.24734 -0.6375,0.0985 -0.20324,-0.14884 -0.24734,-0.43426 -0.0985,-0.6375 0.37887,-0.5701 0.9907,-0.9432 1.671,-1.019 0.97387,-10e-4 1.91514,0.35078 2.649,0.991 0.189,0.16974 0.20766,0.45942 0.042,0.652 -0.0856,0.0984 -0.20959,0.15492 -0.34,0.155 z"
   stroke-linecap="round"
   id="path99" />&#10;</g><g
   transform="matrix(1.4653359,0,0,1.4653359,562.24009,422.2032)"
   id="Path_47555">&#10;<path
   style="opacity:0.95;fill:#703123;fill-rule:nonzero;stroke:none;stroke-width:1;stroke-linecap:butt;stroke-linejoin:miter;stroke-miterlimit:4;stroke-dasharray:none;stroke-dashoffset:0"
   vector-effect="non-scaling-stroke"
   transform="translate(-467.38,-533.03)"
   d="m 472.39,530.4 c -6.757,1.615 -10.029,0.3 -10.029,0.3 0,0 0.467,4.532 4.646,4.929 5.963,0.579 5.383,-5.229 5.383,-5.229 z"
   stroke-linecap="round"
   id="path100" />&#10;</g><g
   transform="matrix(1.4653359,0,0,1.4653359,562.44523,419.99054)"
   id="Path_47556">&#10;<path
   style="opacity:0.95;fill:#ffffff;fill-rule:nonzero;stroke:none;stroke-width:1;stroke-linecap:butt;stroke-linejoin:miter;stroke-miterlimit:4;stroke-dasharray:none;stroke-dashoffset:0"
   vector-effect="non-scaling-stroke"
   transform="translate(-467.52,-531.52)"
   d="m 462.63,530.783 c 0,0 0.312,0.835 0.411,1.005 0.099,0.17 0.864,0.652 3.754,0.836 1.873,0.0708 3.74363,-0.19298 5.524,-0.779 0.0771,-0.47755 0.10092,-0.96219 0.071,-1.445 -0.4,0.1 -0.779,0.17 -1.147,0.255 -4.93,1.006 -7.777,0.368 -8.613,0.128 z"
   stroke-linecap="round"
   id="path101" />&#10;</g><g
   transform="matrix(1.4653359,0,0,1.4653359,569.47885,403.76927)"
   id="Path_47557">&#10;<path
   style="opacity:0.95;fill:#363435;fill-rule:nonzero;stroke:none;stroke-width:1;stroke-linecap:butt;stroke-linejoin:miter;stroke-miterlimit:4;stroke-dasharray:none;stroke-dashoffset:0"
   vector-effect="non-scaling-stroke"
   transform="translate(-472.32,-520.45)"
   d="m 470.931,520.527 c 0.0426,0.75233 0.67504,1.33482 1.42833,1.31561 0.7533,-0.0192 1.35518,-0.63319 1.35941,-1.38671 0.004,-0.75353 -0.59071,-1.37422 -1.34374,-1.4019 -0.38695,0.003 -0.75664,0.16065 -1.02753,0.43698 -0.2709,0.27633 -0.42073,0.64908 -0.41647,1.03602 z"
   stroke-linecap="round"
   id="path102" />&#10;</g><g
   transform="matrix(1.4653359,0,0,1.4653359,497.31105,621.72334)"
   id="Path_47558">&#10;<path
   style="opacity:0.95;fill:#93bbe5;fill-rule:nonzero;stroke:none;stroke-width:1;stroke-linecap:butt;stroke-linejoin:miter;stroke-miterlimit:4;stroke-dasharray:none;stroke-dashoffset:0"
   vector-effect="non-scaling-stroke"
   transform="translate(-423.07,-669.19)"
   d="m 367.993,714.19 -29.661,-76.249 c -1.25728,-3.04007 -0.93112,-6.50501 0.87137,-9.25706 1.80249,-2.75205 4.84843,-4.43564 8.13763,-4.49794 h 92.4 c 4.21207,0.0328 7.92875,2.76192 9.221,6.771 l 25.483,76.916 29.746,0.142 c 2.422,0 4.377,3.626 4.377,6.1 l -32.749,-0.383 -107.81,0.453 z"
   stroke-linecap="round"
   id="path103" />&#10;</g><g
   transform="matrix(1.4653359,0,0,1.4653359,463.57902,619.61325)"
   id="Path_47559">&#10;<path
   style="opacity:0.95;fill:#ffffff;fill-rule:nonzero;stroke:none;stroke-width:1;stroke-linecap:butt;stroke-linejoin:miter;stroke-miterlimit:4;stroke-dasharray:none;stroke-dashoffset:0"
   vector-effect="non-scaling-stroke"
   transform="translate(-400.05,-667.75)"
   d="m 411.834,667.97 c 0.538,5.553 -3.994,10.015 -10.185,10.171 -6.246,0.156 -12.2,-4.108 -13.258,-9.774 -1.119,-5.921 3.5,-10.964 10.3,-11.02 6.714,-0.057 12.578,4.816 13.145,10.609 z"
   stroke-linecap="round"
   id="path104" />&#10;</g><g
   transform="matrix(1.4653359,0,0,1.4653359,513.95727,775.87668)"
   id="Path_47560">&#10;<path
   style="opacity:0.95;fill:#153d68;fill-rule:nonzero;stroke:none;stroke-width:1;stroke-linecap:butt;stroke-linejoin:miter;stroke-miterlimit:4;stroke-dasharray:none;stroke-dashoffset:0"
   vector-effect="non-scaling-stroke"
   transform="translate(-434.43,-774.39)"
   d="m 435.943,765.043 18.7,15.879 -19.916,2.818 -20.5,-10.042 z"
   stroke-linecap="round"
   id="path105" />&#10;</g><g
   transform="matrix(1.4653359,0,0,1.4653359,428.26442,698.84397)"
   id="Path_47561">&#10;<path
   style="opacity:0.95;fill:#153d68;fill-rule:nonzero;stroke:none;stroke-width:1;stroke-linecap:butt;stroke-linejoin:miter;stroke-miterlimit:4;stroke-dasharray:none;stroke-dashoffset:0"
   vector-effect="non-scaling-stroke"
   transform="translate(-375.95,-721.82)"
   d="m 315.881,680.62 c 0,0 -14.165,5.057 -14.235,20.95 -0.114,30.44 61.49,63.983 61.49,63.983 l 81.986,-54.323 5.142,-2.082 c 0,0 -110.67,-41.574 -134.4,-28.528 z"
   stroke-linecap="round"
   id="path106" />&#10;</g><g
   transform="matrix(1.4653359,0,0,1.4653359,380.91942,783.99464)"
   id="Path_47562">&#10;<path
   style="opacity:0.95;fill:#357ded;fill-rule:nonzero;stroke:none;stroke-width:1;stroke-linecap:butt;stroke-linejoin:miter;stroke-miterlimit:4;stroke-dasharray:none;stroke-dashoffset:0"
   vector-effect="non-scaling-stroke"
   transform="translate(-343.64,-779.93)"
   d="m 378.079,769.887 c 0,0 -38.614,-8.23 -50.937,-2.266 -12.323,5.964 -30.412,12.89 -24.307,17.338 6.105,4.448 28.641,10.468 41.659,9.292 4.646,-0.425 11.176,-1.119 17.678,-2.139 0.3431,0.0427 0.68829,0.0664 1.034,0.071 0.27274,-0.008 0.52752,-0.13782 0.694,-0.354 11.091,-1.828 21.573,-4.576 21.757,-8.386 0.284,-6.218 -7.578,-13.57 -7.578,-13.57 z"
   stroke-linecap="round"
   id="path107" />&#10;</g><g
   transform="matrix(1.4653359,0,0,1.4653359,530.17854,726.93446)"
   id="Path_47563">&#10;<path
   style="opacity:0.95;fill:#184785;fill-rule:nonzero;stroke:none;stroke-width:1;stroke-linecap:butt;stroke-linejoin:miter;stroke-miterlimit:4;stroke-dasharray:none;stroke-dashoffset:0"
   vector-effect="non-scaling-stroke"
   transform="translate(-445.5,-740.99)"
   d="m 355.387,769.25 c 0,0 115.841,-75.981 120.586,-77.567 4.745,-1.586 16.205,-9.094 27.665,-5.936 11.46,3.158 21.743,13.443 26.885,28.458 2.932,8.584 4.32,23.216 4.972,34.208 0.88957,13.14282 -3.36753,26.11638 -11.871,36.177 -3.909,4.533 -8.725,8.471 -14.448,10.256 -1.2,0.368 -2.465,0.694 -3.74,0.977 -21.9,4.746 -44.407,-5.085 -56.716,-23.811 l -2.7,-4.108 c 0,0 -75.783,27.834 -76.959,27.438 L 355.4,769.25 Z"
   stroke-linecap="round"
   id="path108" />&#10;</g><g
   transform="matrix(1.4653359,0,0,1.4653359,511.23174,780.31664)"
   id="Path_47564">&#10;<path
   style="opacity:0.95;fill:#357ded;fill-rule:nonzero;stroke:none;stroke-width:1;stroke-linecap:butt;stroke-linejoin:miter;stroke-miterlimit:4;stroke-dasharray:none;stroke-dashoffset:0"
   vector-effect="non-scaling-stroke"
   transform="translate(-432.57,-777.42)"
   d="m 442.232,774.179 c 0,0 -34.392,-11.87 -42.948,-9.122 -8.556,2.748 5.893,23.216 31.645,24.859 25.752,1.643 39.01,-4.419 37.239,-12.408 -1.771,-7.989 -25.921,-3.329 -25.921,-3.329 z"
   stroke-linecap="round"
   id="path109" />&#10;</g><g
   transform="matrix(1.4653359,0,0,1.4653359,510.63096,786.6762)"
   id="Path_47565">&#10;<path
   style="opacity:0.95;fill:#236cd8;fill-rule:nonzero;stroke:none;stroke-width:1;stroke-linecap:butt;stroke-linejoin:miter;stroke-miterlimit:4;stroke-dasharray:none;stroke-dashoffset:0"
   vector-effect="non-scaling-stroke"
   transform="translate(-432.16,-781.76)"
   d="m 441.821,778.528 c 0,0 -34.392,-11.87 -42.948,-9.122 -8.556,2.748 5.893,23.216 31.645,24.859 25.752,1.643 39.01,-4.419 37.239,-12.408 -1.771,-7.989 -25.922,-3.329 -25.922,-3.329 z"
   stroke-linecap="round"
   id="path110" />&#10;</g><g
   transform="matrix(1.4653359,0,0,1.4653359,753.77414,777.62043)"
   id="Path_47566">&#10;<path
   style="opacity:0.95;fill:#bccddd;fill-rule:nonzero;stroke:none;stroke-width:1;stroke-linecap:butt;stroke-linejoin:miter;stroke-miterlimit:4;stroke-dasharray:none;stroke-dashoffset:0"
   vector-effect="non-scaling-stroke"
   transform="translate(-598.09,-775.58)"
   d="m 598.089,786.715 c 26.144,0 47.339,-4.985 47.339,-11.134 0,-6.149 -21.2,-11.133 -47.339,-11.133 -26.139,0 -47.34,4.984 -47.34,11.133 0,6.149 21.195,11.134 47.34,11.134 z"
   stroke-linecap="round"
   id="path111" />&#10;</g><g
   transform="matrix(1.4653359,0,0,1.4653359,781.33711,475.24836)"
   id="Path_47567">&#10;<path
   style="opacity:0.95;fill:#307175;fill-rule:nonzero;stroke:none;stroke-width:1;stroke-linecap:butt;stroke-linejoin:miter;stroke-miterlimit:4;stroke-dasharray:none;stroke-dashoffset:0"
   vector-effect="non-scaling-stroke"
   transform="translate(-616.9,-569.23)"
   d="m 637.779,552.455 c -0.1298,-0.47092 -0.55953,-0.79609 -1.048,-0.793 -10.284,0.17 -23.188,0.2 -31.9,6.558 -8.116,5.921 -9.335,16.389 -9.15,25.71 0.0167,0.40763 0.25637,0.77298 0.62366,0.95056 0.36729,0.17758 0.80251,0.13854 1.13234,-0.10156 0.028,0 0.043,0.043 0.085,0.057 9.93389,3.77434 21.12378,2.00443 29.40792,-4.65146 8.28414,-6.6559 12.42293,-17.20183 10.87708,-27.71554 z"
   stroke-linecap="round"
   id="path112" />&#10;</g><g
   transform="matrix(1.4653359,0,0,1.4653359,715.70472,490.60508)"
   id="Path_47568">&#10;<path
   style="opacity:0.95;fill:#2f7d7f;fill-rule:nonzero;stroke:none;stroke-width:1;stroke-linecap:butt;stroke-linejoin:miter;stroke-miterlimit:4;stroke-dasharray:none;stroke-dashoffset:0"
   vector-effect="non-scaling-stroke"
   transform="translate(-572.11,-579.71)"
   d="m 587.932,594.567 c 0.085,-7.167 -1.586,-14.405 -7.082,-19.377 -6.3,-5.694 -15.44,-8.952 -22.891,-12.819 -0.765,-0.4 -1.983,0.283 -1.6,1.232 3.372,8.584 2.9,19.066 8.853,26.517 5.057,6.331 13.627,8.47 21.234,6.133 0.56566,-0.49616 1.0654,-1.06278 1.487,-1.686 z"
   stroke-linecap="round"
   id="path113" />&#10;</g><g
   transform="matrix(1.4653359,0,0,1.4653359,797.79284,567.19819)"
   id="Path_47569">&#10;<path
   style="opacity:0.95;fill:#2f7d7f;fill-rule:nonzero;stroke:none;stroke-width:1;stroke-linecap:butt;stroke-linejoin:miter;stroke-miterlimit:4;stroke-dasharray:none;stroke-dashoffset:0"
   vector-effect="non-scaling-stroke"
   transform="translate(-628.13,-631.98)"
   d="m 654.465,617.911 c -5.057,-3.923 -11.587,-3.527 -17.706,-3.258 -6.785,0.3 -13.627,1.332 -19.8,4.278 -10.779,5.128 -18.358,16.446 -14.448,28.429 -0.13854,0.54963 0.1794,1.11109 0.722,1.275 10.27,3.258 15.242,-3.612 21.418,-10.439 7.94209,-8.68339 18.08221,-15.06031 29.349,-18.457 0.37277,-0.10682 0.66177,-0.40202 0.76064,-0.77698 0.0989,-0.37497 -0.007,-0.77428 -0.27864,-1.05102 z"
   stroke-linecap="round"
   id="path114" />&#10;</g><g
   transform="matrix(1.4653359,0,0,1.4653359,833.94271,580.16641)"
   id="Path_47570">&#10;<path
   style="opacity:0.95;fill:#2f7d7f;fill-rule:nonzero;stroke:none;stroke-width:1;stroke-linecap:butt;stroke-linejoin:miter;stroke-miterlimit:4;stroke-dasharray:none;stroke-dashoffset:0"
   vector-effect="non-scaling-stroke"
   transform="translate(-652.8,-640.83)"
   d="m 679.056,643.507 c -0.128,-0.042 -0.269,-0.113 -0.4,-0.169 -4.363,-1.87 -8.272,-5.426 -12.239,-8.854 0,-0.028 -0.028,-0.028 -0.042,-0.042 -4.349,-3.754 -8.768,-7.309 -13.938,-8.244 -0.0387,-0.0225 -0.0835,-0.0323 -0.128,-0.028 -2.57116,-0.45231 -5.21555,-0.23289 -7.677,0.637 -10.992,3.669 -17.749,15.114 -18.84,26.134 -0.0172,0.22578 0.0427,0.45071 0.17,0.638 -0.0175,0.0589 -0.0409,0.11587 -0.07,0.17 -0.0995,0.33397 -0.0489,0.69468 0.13869,0.98838 0.18754,0.29369 0.49349,0.49136 0.83831,0.54162 9.42,1.119 18.669,0.028 27.891,-1.927 8.173,-1.728 17.423,-3.116 24.533,-7.847 0.36457,-0.22772 0.5631,-0.64692 0.50828,-1.07326 -0.0548,-0.42633 -0.35296,-0.78167 -0.76328,-0.90974 z"
   stroke-linecap="round"
   id="path115" />&#10;</g><g
   transform="matrix(1.4653359,0,0,1.4653359,820.72534,625.76767)"
   id="Path_47571">&#10;<path
   style="opacity:0.95;fill:#2f7d7f;fill-rule:nonzero;stroke:none;stroke-width:1;stroke-linecap:butt;stroke-linejoin:miter;stroke-miterlimit:4;stroke-dasharray:none;stroke-dashoffset:0"
   vector-effect="non-scaling-stroke"
   transform="translate(-643.78,-671.95)"
   d="m 662.681,664.6 c -12.026,-2.408 -36.885,-8.527 -38.585,10.638 -0.0338,0.24326 0.0332,0.48978 0.18561,0.68239 0.15239,0.19261 0.37687,0.31457 0.62139,0.33761 10.921,12.8 32.14,2.649 38.43,-10.057 0.16471,-0.29345 0.18672,-0.64596 0.0598,-0.95761 -0.12693,-0.31166 -0.38895,-0.5485 -0.7118,-0.64339 z"
   stroke-linecap="round"
   id="path116" />&#10;</g><g
   transform="matrix(1.4653359,0,0,1.4653359,723.63218,566.61205)"
   id="Path_47572">&#10;<path
   style="opacity:0.95;fill:#307175;fill-rule:nonzero;stroke:none;stroke-width:1;stroke-linecap:butt;stroke-linejoin:miter;stroke-miterlimit:4;stroke-dasharray:none;stroke-dashoffset:0"
   vector-effect="non-scaling-stroke"
   transform="translate(-577.52,-631.58)"
   d="m 586.459,626.028 c -3.187,-7.069 -10.61,-14.363 -17.9,-17.026 -0.32808,-0.0862 -0.67757,-0.0172 -0.94828,0.18722 -0.27071,0.2044 -0.43277,0.52164 -0.43972,0.86078 0.128,13.91 -3.286,35.823 11.842,43.514 0.10245,0.0483 0.213,0.0772 0.326,0.085 0.18528,0.33487 0.53779,0.5427 0.9205,0.5427 0.38271,0 0.73522,-0.20783 0.9205,-0.5427 4.675,-8.343 9.576,-18.117 5.27,-27.65 z"
   stroke-linecap="round"
   id="path117" />&#10;</g><g
   transform="matrix(1.4653359,0,0,1.4653359,650.424,589.29545)"
   id="Path_47573">&#10;<path
   style="opacity:0.95;fill:#2f7d7f;fill-rule:nonzero;stroke:none;stroke-width:1;stroke-linecap:butt;stroke-linejoin:miter;stroke-miterlimit:4;stroke-dasharray:none;stroke-dashoffset:0"
   vector-effect="non-scaling-stroke"
   transform="translate(-527.56,-647.06)"
   d="m 547.038,634.9 c -7.92765,-6.12736 -18.62498,-7.28258 -27.678,-2.989 -11.927,6.063 -9.788,20.426 -11.6,31.5 -0.11867,0.47511 0.091,0.97146 0.51441,1.21756 0.42338,0.24611 0.95847,0.18269 1.31259,-0.15556 11.785,-10.34 28.231,-14.405 37.226,-27.947 0.30935,-0.13176 0.52686,-0.41621 0.57295,-0.74928 0.0461,-0.33308 -0.086,-0.6659 -0.34795,-0.87672 z"
   stroke-linecap="round"
   id="path118" />&#10;</g><g
   transform="matrix(1.4653359,0,0,1.4653359,669.31218,616.59466)"
   id="Path_47574">&#10;<path
   style="opacity:0.95;fill:#307175;fill-rule:nonzero;stroke:none;stroke-width:1;stroke-linecap:butt;stroke-linejoin:miter;stroke-miterlimit:4;stroke-dasharray:none;stroke-dashoffset:0"
   vector-effect="non-scaling-stroke"
   transform="translate(-540.45,-665.69)"
   d="m 547.109,645.844 c -0.28161,-0.4563 -0.8609,-0.62845 -1.346,-0.4 -0.30672,-0.4372 -0.89673,-0.56745 -1.359,-0.3 -5.907,3.244 -12.834,7.777 -13.995,14.916 -1.389,8.513 3.4,16.828 3.938,25.228 0.07,1.147 1.9,1.572 2.138,0.3 1.516,-8.06 9.873,-11.742 12.947,-18.995 2.522,-5.978 1.19,-15.369 -2.323,-20.737 z"
   stroke-linecap="round"
   id="path119" />&#10;</g><g
   transform="matrix(1.4653359,0,0,1.4653359,713.40414,647.00038)"
   id="Path_47575">&#10;<path
   style="opacity:0.95;fill:#307175;fill-rule:nonzero;stroke:none;stroke-width:1;stroke-linecap:butt;stroke-linejoin:miter;stroke-miterlimit:4;stroke-dasharray:none;stroke-dashoffset:0"
   vector-effect="non-scaling-stroke"
   transform="translate(-570.54,-686.44)"
   d="m 583.569,695.337 c -6.94,-9.746 -14.08,-18.075 -26.134,-21.134 -0.42533,-0.10775 -0.87401,0.0476 -1.1417,0.39521 -0.26769,0.34765 -0.30317,0.82113 -0.0903,1.20479 2.719,4.08 2.663,8.712 4.929,12.834 1.44668,2.37186 3.46885,4.34003 5.879,5.722 5.141,3.244 11.771,6.191 17.493,2.918 0.46983,-0.29556 0.64117,-0.89784 0.39726,-1.39644 -0.2439,-0.49861 -0.82454,-0.73304 -1.34626,-0.54356 z"
   stroke-linecap="round"
   id="path120" />&#10;</g><g
   transform="matrix(1.4653359,0,0,1.4653359,743.3263,626.61756)"
   id="Path_47576">&#10;<path
   style="opacity:0.95;fill:#2f7d7f;fill-rule:nonzero;stroke:none;stroke-width:1;stroke-linecap:butt;stroke-linejoin:miter;stroke-miterlimit:4;stroke-dasharray:none;stroke-dashoffset:0"
   vector-effect="non-scaling-stroke"
   transform="translate(-590.96,-672.53)"
   d="m 599.222,683.821 c -0.0255,-0.10816 -0.0638,-0.21289 -0.114,-0.312 -4.773,-7.62 -4.986,-17.295 -11.572,-23.853 -0.24142,-0.23548 -0.57752,-0.3472 -0.91187,-0.30312 -0.33435,0.0441 -0.63,0.23911 -0.80213,0.52912 -3.23,5.17 -4.788,11.389 -2.224,17.182 2.776,6.275 8.626,7.989 14.986,8.641 1.116,0.113 1.316,-1.261 0.638,-1.884 z"
   stroke-linecap="round"
   id="path121" />&#10;</g><g
   transform="matrix(1.4653359,0,0,1.4653359,761.80419,531.98617)"
   id="Path_47577">&#10;<path
   style="opacity:0.95;fill:#2f7d7f;fill-rule:nonzero;stroke:none;stroke-width:1;stroke-linecap:butt;stroke-linejoin:miter;stroke-miterlimit:4;stroke-dasharray:none;stroke-dashoffset:0"
   vector-effect="non-scaling-stroke"
   transform="translate(-603.57,-607.95)"
   d="m 612.594,598.69 c -1.36,-1.134 -3.173,0 -4.519,0.566 -2.54859,1.02638 -4.96566,2.35309 -7.2,3.952 -4.122,3.074 -6.955,7.437 -7.224,12.579 -0.0311,0.13091 -0.0406,0.26603 -0.028,0.4 0,0.156 -0.028,0.3 -0.028,0.439 0.015,0.5111 0.38017,0.94449 0.88133,1.04592 0.50116,0.10142 1.00613,-0.15586 1.21867,-0.62092 5.284,-1.161 9.462,-4.561 12.918,-8.64 1.587,-1.87 7.154,-7.069 3.981,-9.732 z"
   stroke-linecap="round"
   id="path122" />&#10;</g><g
   transform="matrix(1.4653359,0,0,1.4653359,771.32887,626.60291)"
   id="Path_47578">&#10;<path
   style="opacity:0.95;fill:#2f7d7f;fill-rule:nonzero;stroke:none;stroke-width:1;stroke-linecap:butt;stroke-linejoin:miter;stroke-miterlimit:4;stroke-dasharray:none;stroke-dashoffset:0"
   vector-effect="non-scaling-stroke"
   transform="translate(-610.07,-672.52)"
   d="m 614.987,684.7 c -0.17,-0.156 -0.3,-0.34 -0.453,-0.5 1.36,-9.306 1.941,-20.086 -7.224,-25.553 -0.29288,-0.16635 -0.64584,-0.18935 -0.95783,-0.0624 -0.31199,0.12694 -0.54863,0.38983 -0.64217,0.71341 -2.56373,9.72229 0.41171,20.06742 7.749,26.942 1.019,0.963 2.563,-0.581 1.544,-1.544 z"
   stroke-linecap="round"
   id="path123" />&#10;</g><g
   transform="matrix(1.4653359,0,0,1.4653359,833.10741,578.71573)"
   id="Path_47579">&#10;<path
   style="opacity:0.95;fill:#307175;fill-rule:nonzero;stroke:none;stroke-width:1;stroke-linecap:butt;stroke-linejoin:miter;stroke-miterlimit:4;stroke-dasharray:none;stroke-dashoffset:0"
   vector-effect="non-scaling-stroke"
   transform="translate(-652.23,-639.84)"
   d="m 678.107,642.417 c -4.037,-1.785 -7.834,-4.887 -11.686,-7.933 0,-0.028 -0.029,-0.028 -0.043,-0.042 -4.434,-3.513 -8.924,-6.955 -13.938,-8.244 -0.0387,-0.0225 -0.0835,-0.0323 -0.128,-0.028 -2.57116,-0.45231 -5.21555,-0.23289 -7.677,0.637 -10.992,3.669 -17.749,15.114 -18.84,26.134 -0.0172,0.22578 0.0427,0.45071 0.17,0.638 -0.0175,0.0589 -0.0409,0.11587 -0.07,0.17 0.37607,-0.0193 0.72155,-0.2131 0.934,-0.524 0.22956,-0.0331 0.4411,-0.14305 0.6,-0.312 3.584,-3.825 7.394,-7.366 11.148,-11.02 1.813,-1.743 3.584,-3.952 5.624,-5.411 4.362,-3.117 8.116,-2.536 12.692,-1.2 5.467,1.586 10.467,4.433 15.439,7.153 1.856,1.048 3.669,2.819 5.78,1.856 0.35837,-0.18398 0.57472,-0.5618 0.552,-0.964 0.0159,-0.3893 -0.20101,-0.75084 -0.552,-0.92 z"
   stroke-linecap="round"
   id="path124" />&#10;</g><g
   transform="matrix(1.4653359,0,0,1.4653359,688.05383,628.27339)"
   id="Path_47580">&#10;<path
   style="opacity:0.95;fill:#245e5e;fill-rule:nonzero;stroke:none;stroke-width:1;stroke-linecap:butt;stroke-linejoin:miter;stroke-miterlimit:4;stroke-dasharray:none;stroke-dashoffset:0"
   vector-effect="non-scaling-stroke"
   transform="translate(-553.24,-673.66)"
   d="m 581.529,679.132 c -1.034,-4.235 -2.209,-8.513 -3.64,-12.706 0.014,-0.042 0.043,-0.056 0.057,-0.1 1.92949,-6.5839 2.71058,-13.45095 2.309,-20.3 0.405,-0.0541 0.73908,-0.34375 0.85,-0.737 1.25254,-3.97002 1.78955,-8.13106 1.586,-12.289 -0.071,-1.4 -2.252,-1.4 -2.181,0 0.13875,2.86503 -0.0945,5.73596 -0.694,8.541 -0.43762,-3.26231 -1.13993,-6.4836 -2.1,-9.632 -0.411,-1.345 -2.521,-0.765 -2.1,0.581 3.06144,9.84006 3.39428,20.32661 0.963,30.341 -1.96284,-5.22196 -4.67308,-10.13146 -8.046,-14.575 -8.074,-10.341 -22.763,-16.63 -34.406,-11.757 -0.0256,-0.44085 -0.3466,-0.80835 -0.78,-0.893 -4.42958,-1.10664 -9.11788,-0.39243 -13.017,1.983 -0.49293,0.31712 -0.64798,0.9666 -0.35145,1.47218 0.29653,0.50558 0.93908,0.68727 1.45645,0.41182 3.14263,-1.9248 6.88905,-2.61134 10.51,-1.926 -2.89264,1.65944 -5.38728,3.93155 -7.309,6.657 -0.822,1.148 1.062,2.238 1.884,1.105 5.581,-7.734 15.709,-10.17 24.59,-7.3 2.53994,0.83698 4.94853,2.02949 7.154,3.542 -9.293,-0.2 -16.347,6.034 -22.693,12.224 -1.005,0.977 0.539,2.521 1.544,1.544 1.261,-1.232 2.55,-2.465 3.867,-3.641 -0.37145,2.19968 -0.43875,4.43999 -0.2,6.658 0.142,1.374 2.323,1.4 2.182,0 -0.30442,-2.83317 -0.0934,-5.69804 0.623,-8.456 0.0362,-0.13384 0.0457,-0.27349 0.028,-0.411 4.49,-3.556 9.519,-6.134 15.681,-5.7 0.47809,0.0636 0.92132,-0.26101 1.005,-0.736 4.90975,4.03941 8.88683,9.09384 11.658,14.816 5.609,11.148 8.811,23.9 10.624,36.659 -4.46867,-1.13764 -8.50324,-3.56638 -11.6,-6.983 -0.949,-1.034 -2.493,0.51 -1.544,1.544 1.5671,1.72106 3.36402,3.21782 5.34,4.448 -1.26053,0.007 -2.51987,-0.0785 -3.768,-0.255 -1.374,-0.213 -1.969,1.884 -0.581,2.1 2.07857,0.33729 4.18825,0.44193 6.29,0.312 0.39298,-0.015 0.74375,-0.25076 0.906,-0.609 1.62799,0.74837 3.32679,1.33195 5.071,1.742 0.0708,0.007 0.14217,0.007 0.213,0 0.793,6.19 1.275,12.352 1.558,18.315 0.071,1.4 2.252,1.4 2.181,0 -0.54425,-12.13961 -2.26158,-24.1981 -5.128,-36.007 z"
   stroke-linecap="round"
   id="path125" />&#10;</g><g
   transform="matrix(1.4653359,0,0,1.4653359,753.67157,579.84404)"
   id="Path_47581">&#10;<path
   style="opacity:0.95;fill:#245e5e;fill-rule:nonzero;stroke:none;stroke-width:1;stroke-linecap:butt;stroke-linejoin:miter;stroke-miterlimit:4;stroke-dasharray:none;stroke-dashoffset:0"
   vector-effect="non-scaling-stroke"
   transform="translate(-598.02,-640.61)"
   d="m 617.735,634.3 q -2.953,2.147 -5.623,4.533 c 1.02781,-3.86149 2.72999,-7.51095 5.028,-10.78 0.808,-1.147 -1.076,-2.238 -1.884,-1.1 -2.83029,4.01617 -4.80232,8.57265 -5.793,13.385 -0.0706,0.28363 -0.0136,0.58397 0.156,0.822 -4.87423,4.7561 -9.03466,10.19241 -12.352,16.14 q -0.893,-11.283 -1.459,-22.579 c -0.255,-5.354 -0.68,-11.346 -0.822,-17.508 2.522,-3.4 5.2,-6.742 9.123,-8.584 1.274,-0.595 0.17,-2.479 -1.1,-1.884 -3.19475,1.66064 -5.95537,4.04758 -8.06,6.969 -0.014,-2.889 0.028,-5.807 0.212,-8.7 0.18215,-0.3059 0.20344,-0.68148 0.057,-1.006 1.091,-15.4 5.723,-29.944 20.468,-36.743 1.275,-0.595 0.17,-2.465 -1.105,-1.884 -3.49752,1.59019 -6.68628,3.78633 -9.419,6.487 -0.113,-2.11163 0.23011,-4.22283 1.006,-6.19 0.509,-1.3 -1.6,-1.87 -2.111,-0.581 -1.08059,2.78939 -1.38404,5.81973 -0.878,8.768 0,0.057 0.028,0.071 0.042,0.114 -6.275,7.493 -8.867,17.493 -9.8,27.848 q -4.738,-5.5 -9.476,-11.006 c 0.34246,-0.16486 0.54163,-0.52979 0.495,-0.907 -0.17299,-3.03628 -1.18826,-5.96436 -2.932,-8.456 -0.807,-1.133 -2.691,-0.043 -1.884,1.1 1.29245,1.81688 2.13709,3.91356 2.465,6.119 q -1.764,-2.04 -3.527,-4.079 c -0.921,-1.063 -2.451,0.481 -1.544,1.543 q 8.074,9.371 16.162,18.755 c -0.241,3.81 -0.269,7.649 -0.212,11.388 -0.0519,0.0633 -0.0994,0.1301 -0.142,0.2 -0.15759,0.18733 -0.22897,0.43239 -0.19662,0.67505 0.0324,0.24266 0.16545,0.46045 0.36662,0.59995 0.071,3.668 0.213,7.252 0.354,10.638 q 1.041,26.091 3.924,52.042 c -3.924,-2.168 -6.091,-6.247 -8.046,-10.171 -0.623,-1.261 -2.507,-0.156 -1.884,1.1 2.253,4.49 4.816,9.193 9.59,11.389 0.18189,0.0822 0.38319,0.11162 0.581,0.085 q 1.869,16.658 4.476,33.231 c 0.212,1.374 2.323,0.793 2.11,-0.581 q -4.25,-27.2 -6.558,-54.649 c 0.21881,-0.085 0.3998,-0.24574 0.51,-0.453 4.93368,-9.58254 12.05201,-17.87036 20.78,-24.194 1.119,-0.821 0.042,-2.7 -1.1,-1.884 z"
   stroke-linecap="round"
   id="path126" />&#10;</g><g
   transform="matrix(1.4653359,0,0,1.4653359,802.29142,635.38027)"
   id="Path_47582">&#10;<path
   style="opacity:0.95;fill:#245e5e;fill-rule:nonzero;stroke:none;stroke-width:1;stroke-linecap:butt;stroke-linejoin:miter;stroke-miterlimit:4;stroke-dasharray:none;stroke-dashoffset:0"
   vector-effect="non-scaling-stroke"
   transform="translate(-631.2,-678.51)"
   d="m 653.813,636.014 c -4.36225,-0.0764 -8.67655,0.91939 -12.564,2.9 1.60914,-1.73213 3.36243,-3.32452 5.241,-4.76 1.1,-0.835 0.014,-2.733 -1.1,-1.883 -3.63833,2.77869 -6.85417,6.07066 -9.547,9.773 -0.0964,0.12901 -0.15964,0.27978 -0.184,0.439 -7.38,5.794 -12.834,14.633 -16.233,23.075 -2.02799,5.13226 -3.62485,10.42457 -4.774,15.822 -1.11887,-2.0912 -2.00805,-4.29739 -2.652,-6.58 -0.609,-1.8 -1.147,-3.428 -2.818,-4.476 -1.19,-0.751 -2.295,1.133 -1.1,1.884 1.756,1.1 2.167,4.306 2.8,6.133 0.55929,1.78237 1.37013,3.47578 2.408,5.029 0.19571,0.27891 0.50963,0.45138 0.85,0.467 -2.649,13.188 -3.371,26.885 -4.646,40.087 -0.141,1.388 2.054,1.388 2.182,0 1.175,-12.295 1.94,-24.86 4.164,-37.1 0.17652,-0.0547 0.3337,-0.15885 0.453,-0.3 4.122,-4.547 8.386,-9.122 13.585,-12.295 1.55775,1.4539 3.40703,2.55972 5.425,3.244 1.331,0.453 1.9,-1.657 0.581,-2.1 -1.46114,-0.50338 -2.81929,-1.26664 -4.009,-2.253 1.45628,-0.76271 2.97804,-1.39324 4.547,-1.884 0.5799,-0.16044 0.91994,-0.7606 0.7595,-1.3405 -0.16044,-0.5799 -0.7606,-0.91994 -1.3405,-0.7595 -2.06394,0.62856 -4.05385,1.4785 -5.935,2.535 -0.33947,0.0331 -0.64625,0.21657 -0.836,0.5 -4.717,2.8 -8.711,6.686 -12.493,10.766 0.722,-3.428 1.544,-6.842 2.592,-10.2 2.21472,-7.37854 5.62135,-14.34517 10.085,-20.624 h 0.114 c 2.47532,-0.82352 5.0215,-1.41638 7.606,-1.771 1.388,-0.184 0.794,-2.295 -0.58,-2.111 -1.6175,0.23329 -3.22017,0.55983 -4.8,0.978 5.694,-6.573 13.046,-11.19 22.2,-11.02 0.58439,-0.025 1.04528,-0.50608 1.04528,-1.091 0,-0.58492 -0.46089,-1.06597 -1.04528,-1.091 z"
   stroke-linecap="round"
   id="path127" />&#10;</g><g
   transform="matrix(1.4653359,0,0,1.4653359,755.40067,725.71823)"
   id="Path_47583">&#10;<path
   style="opacity:0.95;fill:#f89d13;fill-rule:nonzero;stroke:none;stroke-width:1;stroke-linecap:butt;stroke-linejoin:miter;stroke-miterlimit:4;stroke-dasharray:none;stroke-dashoffset:0"
   vector-effect="non-scaling-stroke"
   transform="translate(-599.2,-740.16)"
   d="m 635.626,703.978 -1.726,10.807 -3.117,19.364 -6.783,42.197 h -49.6 l -6.785,-42.2 -3.117,-19.364 -1.728,-10.807 z"
   stroke-linecap="round"
   id="path128" />&#10;</g><g
   transform="matrix(1.4653359,0,0,1.4653359,724.42347,725.71823)"
   id="Path_47584">&#10;<path
   style="opacity:0.95;fill:#d17e11;fill-rule:nonzero;stroke:none;stroke-width:1;stroke-linecap:butt;stroke-linejoin:miter;stroke-miterlimit:4;stroke-dasharray:none;stroke-dashoffset:0"
   vector-effect="non-scaling-stroke"
   transform="translate(-578.06,-740.16)"
   d="m 583.47,714.785 -1.728,-10.807 h -18.981 l 1.728,10.807 3.117,19.364 6.785,42.2 h 18.967 l -6.771,-42.2 z"
   stroke-linecap="round"
   id="path129" />&#10;</g><g
   transform="matrix(1.4653359,0,0,1.4653359,911.35641,512.73165)"
   id="Path_47585">&#10;<path
   style="opacity:0.95;fill:#77aad8;fill-rule:nonzero;stroke:none;stroke-width:1;stroke-linecap:butt;stroke-linejoin:miter;stroke-miterlimit:4;stroke-dasharray:none;stroke-dashoffset:0"
   vector-effect="non-scaling-stroke"
   transform="translate(-705.63,-594.81)"
   d="m 727.575,584 0.808,-2.45 -5.681,-3.825 -4.221,2.734 c -1.80067,-1.49006 -3.84731,-2.65482 -6.048,-3.442 l 0.2,-5.014 -7.054,-3.443 -0.807,2.451 -1.049,4.915 c -2.32862,0.21598 -4.60118,0.83946 -6.714,1.842 l -3.414,-3.683 -5.453,2.422 -0.807,2.451 2.733,4.221 c -1.4897,1.80092 -2.65443,3.84749 -3.442,6.048 l -4.207,-2.649 -0.807,2.451 -0.992,7.861 4.916,1.049 c 0.21515,2.32865 0.83831,4.60129 1.841,6.714 l -2.875,0.963 -0.808,2.45 4.873,6.276 4.221,-2.734 c 1.80113,1.48994 3.84807,2.65469 6.049,3.442 l -0.2,5.014 7.862,0.992 0.807,-2.451 0.241,-2.465 c 2.329,-0.21325 4.60197,-0.8365 6.714,-1.841 l 3.414,3.683 6.275,-4.873 0.807,-2.45 -3.541,-1.771 c 1.49006,-1.80067 2.65482,-3.84731 3.442,-6.048 l 5.015,0.2 0.807,-2.451 0.17,-5.425 -4.915,-1.048 c -0.21406,-2.32897 -0.83763,-4.60185 -1.842,-6.714 l 3.683,-3.414 z M 713.3,605.93 c -5.46456,4.24396 -13.33487,3.25449 -17.57885,-2.21005 -4.24398,-5.46454 -3.25454,-13.33486 2.20998,-17.57886 5.46453,-4.24401 13.33484,-3.2546 17.57887,2.20991 2.03989,2.62349 2.95317,5.9503 2.53864,9.24757 -0.41453,3.29728 -2.12285,6.2945 -4.74864,8.33143 z"
   stroke-linecap="round"
   id="path130" />&#10;</g><g
   transform="matrix(1.4653359,0,0,1.4653359,912.52861,510.94394)"
   id="Path_47586">&#10;<path
   style="opacity:0.95;fill:#93bbe5;fill-rule:nonzero;stroke:none;stroke-width:1;stroke-linecap:butt;stroke-linejoin:miter;stroke-miterlimit:4;stroke-dasharray:none;stroke-dashoffset:0"
   vector-effect="non-scaling-stroke"
   transform="translate(-706.43,-593.59)"
   d="m 728.383,581.552 -4.873,-6.261 -4.221,2.734 c -1.80116,-1.48989 -3.84809,-2.65463 -6.049,-3.442 l 0.2,-5.015 -7.876,-0.991 -1.048,4.915 c -2.32897,0.21514 -4.60195,0.8383 -6.715,1.841 l -3.413,-3.683 -6.261,4.873 2.734,4.221 c -1.48989,1.80116 -2.65463,3.84809 -3.442,6.049 l -5.015,-0.2 -0.991,7.862 4.915,1.048 c 0.215,2.32868 0.83818,4.60134 1.841,6.714 l -3.683,3.414 4.873,6.261 4.221,-2.734 c 1.80117,1.48987 3.8481,2.65461 6.049,3.442 l -0.2,5.015 7.862,0.991 1.048,-4.915 c 2.32891,-0.2137 4.6018,-0.83694 6.714,-1.841 l 3.414,3.682 6.275,-4.872 -2.734,-4.221 c 1.48987,-1.80117 2.65461,-3.8481 3.442,-6.049 l 5.015,0.2 0.991,-7.861 -4.915,-1.048 c -0.21312,-2.32902 -0.83639,-4.60201 -1.841,-6.714 z M 714.1,603.479 c -5.46456,4.24396 -13.33487,3.25449 -17.57885,-2.21005 -4.24398,-5.46454 -3.25454,-13.33486 2.20998,-17.57886 5.46453,-4.24401 13.33484,-3.2546 17.57887,2.20991 2.04041,2.62329 2.95401,5.95024 2.53946,9.24768 -0.41454,3.29743 -2.12321,6.29471 -4.74946,8.33132 z"
   stroke-linecap="round"
   id="path131" />&#10;</g><g
   transform="matrix(1.4653359,0,0,1.4653359,910.15481,433.88193)"
   id="Path_47587">&#10;<path
   style="opacity:0.95;fill:#d17e11;fill-rule:nonzero;stroke:none;stroke-width:1;stroke-linecap:butt;stroke-linejoin:miter;stroke-miterlimit:4;stroke-dasharray:none;stroke-dashoffset:0"
   vector-effect="non-scaling-stroke"
   transform="translate(-704.82,-541)"
   d="m 728.524,533.646 0.609,-2.522 -4.122,-4.632 -4.7,1.828 c -1.46298,-1.83447 -3.23696,-3.39758 -5.241,-4.618 l 1.218,-4.9 -7.535,-2.578 -2.04,4.618 c -2.33075,-0.26419 -4.68983,-0.11559 -6.969,0.439 l -2.607,-4.321 -6.544,0.992 -0.609,2.521 1.827,4.7 c -1.83024,1.46713 -3.39236,3.24037 -4.617,5.241 l -4.9,-1.218 -1.954,5.014 -0.609,2.522 4.617,2.039 c -0.26358,2.3311 -0.11498,4.69039 0.439,6.97 l -3.711,0.085 -0.609,2.521 3.513,7.153 4.7,-1.827 c 1.46851,1.83443 3.24707,3.39739 5.255,4.618 l -1.218,4.9 7.536,2.578 2.039,-4.618 c 2.33127,0.25669 4.68936,0.10816 6.97,-0.439 l 2.606,4.32 7.153,-3.513 0.609,-2.521 -2.436,-2.181 c 1.83811,-1.46505 3.40168,-3.24463 4.618,-5.256 l 4.9,1.219 2.578,-7.536 0.609,-2.521 -5.227,0.481 c 0.25667,-2.33093 0.10815,-4.6887 -0.439,-6.969 l 4.32,-2.606 z m -18.5,18.641 c -4.56345,2.24314 -10.0288,1.51641 -13.8475,-1.84131 -3.81871,-3.35771 -5.23873,-8.68516 -3.5979,-13.4981 1.64083,-4.81295 6.01937,-8.16355 11.09387,-8.48939 5.07451,-0.32585 9.84562,2.43724 12.08853,7.0008 3.05477,6.23166 0.48819,13.76006 -5.737,16.828 z"
   stroke-linecap="round"
   id="path132" />&#10;</g><g
   transform="matrix(1.4653359,0,0,1.4653359,910.57971,430.18928)"
   id="Path_47588">&#10;<path
   style="opacity:0.95;fill:#f89d13;fill-rule:nonzero;stroke:none;stroke-width:1;stroke-linecap:butt;stroke-linejoin:miter;stroke-miterlimit:4;stroke-dasharray:none;stroke-dashoffset:0"
   vector-effect="non-scaling-stroke"
   transform="translate(-705.1,-538.48)"
   d="m 729.133,531.124 -3.513,-7.153 -4.7,1.827 c -1.46328,-1.83391 -3.23722,-3.39664 -5.241,-4.617 l 1.218,-4.9 -7.536,-2.578 -2.039,4.617 c -2.33076,-0.26367 -4.68975,-0.11507 -6.969,0.439 l -2.607,-4.32 -7.153,3.513 1.827,4.7 c -1.83193,1.46896 -3.39512,3.24463 -4.62,5.248 l -4.9,-1.218 -2.578,7.535 4.618,2.04 c -0.26371,2.33076 -0.11511,4.68975 0.439,6.969 l -4.32,2.607 3.513,7.153 4.7,-1.827 c 1.46879,1.83389 3.24731,3.39648 5.255,4.617 l -1.218,4.9 7.535,2.578 2.04,-4.618 c 2.33093,0.25667 4.6887,0.10815 6.969,-0.439 l 2.607,4.32 7.154,-3.517 -1.827,-4.7 c 1.83755,-1.46496 3.40075,-3.24417 4.617,-5.255 l 4.9,1.218 2.578,-7.535 -4.617,-2.04 c 0.25671,-2.33093 0.10819,-4.68871 -0.439,-6.969 l 4.32,-2.607 z m -18.5,18.641 c -6.23087,3.0624 -13.76455,0.49386 -16.82696,-5.73701 -3.06241,-6.23086 -0.49387,-13.76454 5.73699,-16.82696 6.23086,-3.06241 13.76455,-0.49389 16.82697,5.73697 3.05469,6.23137 0.48806,13.75947 -5.737,16.827 z"
   stroke-linecap="round"
   id="path133" />&#10;</g><g
   transform="matrix(1.4653359,0,0,1.4653359,989.42951,470.72047)"
   id="Path_47589">&#10;<path
   style="opacity:0.95;fill:#296ed3;fill-rule:nonzero;stroke:none;stroke-width:1;stroke-linecap:butt;stroke-linejoin:miter;stroke-miterlimit:4;stroke-dasharray:none;stroke-dashoffset:0"
   vector-effect="non-scaling-stroke"
   transform="translate(-758.91,-566.14)"
   d="m 780.183,545.8 0.978,-2.974 -8.684,-2.791 -4.051,4.547 c -2.57951,-1.17034 -5.34729,-1.87067 -8.173,-2.068 l -1.388,-5.921 -8.527,-1.586 -0.978,2.96 0.354,6.077 c -2.65158,0.99805 -5.10647,2.45569 -7.252,4.306 l -5.17,-3.2 -4.774,4.745 -0.977,2.961 4.547,4.051 c -1.16393,2.58176 -1.86396,5.34836 -2.068,8.173 l -4.944,-1.572 -0.977,2.974 1.374,9.505 6.076,-0.354 c 1.0038,2.64903 2.46124,5.10302 4.307,7.252 l -2.224,2.21 -0.978,2.975 7.706,5.751 4.051,-4.547 c 2.58367,1.16073 5.34888,1.86514 8.173,2.082 l 1.388,5.921 9.505,-1.374 0.978,-2.961 -1.332,-3.1 c 2.64924,-1.00291 5.10332,-2.46006 7.252,-4.306 l 5.171,3.2 5.751,-7.7 0.977,-2.975 -5.524,-1.077 c 1.17034,-2.57951 1.87067,-5.34729 2.068,-8.173 l 5.921,-1.388 0.977,-2.96 -2.365,-6.545 -6.077,0.355 c -1.00387,-2.64908 -2.46093,-5.10333 -4.306,-7.253 l 3.2,-5.17 z m -9.618,30.2 c -3.67233,4.91597 -9.94439,7.13568 -15.89147,5.62406 -5.94708,-1.51162 -10.39796,-6.45688 -11.27716,-12.52975 -0.8792,-6.07287 1.98644,-12.07737 7.26063,-15.21355 5.2742,-3.13618 11.91826,-2.78639 16.834,0.88624 3.22365,2.40778 5.35862,5.99768 5.93512,9.97976 0.57651,3.98209 -0.45269,8.03007 -2.86112,11.25324 z"
   stroke-linecap="round"
   id="path134" />&#10;</g><g
   transform="matrix(1.4653359,0,0,1.4653359,990.16211,467.52604)"
   id="Path_47590">&#10;<path
   style="opacity:0.95;fill:#357ded;fill-rule:nonzero;stroke:none;stroke-width:1;stroke-linecap:butt;stroke-linejoin:miter;stroke-miterlimit:4;stroke-dasharray:none;stroke-dashoffset:0"
   vector-effect="non-scaling-stroke"
   transform="translate(-759.41,-563.96)"
   d="m 781.175,542.825 -7.706,-5.751 -4.051,4.547 c -2.57961,-1.17008 -5.34733,-1.87039 -8.173,-2.068 l -1.389,-5.921 -9.5,1.374 0.354,6.076 c -2.65192,0.99842 -5.10713,2.45638 -7.253,4.307 l -5.17,-3.2 -5.751,7.706 4.547,4.051 c -1.16365,2.58185 -1.86367,5.34841 -2.068,8.173 l -5.921,1.389 1.374,9.5 6.077,-0.354 c 1.0031,2.64945 2.46023,5.10383 4.306,7.253 l -3.2,5.17 7.705,5.751 4.052,-4.547 c 2.58343,1.16142 5.34876,1.86586 8.173,2.082 l 1.388,5.921 9.505,-1.374 -0.354,-6.077 c 2.64912,-1.00315 5.10317,-2.46028 7.252,-4.306 l 5.17,3.2 5.751,-7.7 -4.547,-4.052 c 1.17034,-2.57951 1.87067,-5.34729 2.068,-8.173 l 5.921,-1.388 -1.374,-9.505 -6.077,0.355 c -1.00286,-2.64957 -2.46001,-5.10399 -4.306,-7.253 l 3.2,-5.17 z m -9.618,30.2 c -3.67233,4.91597 -9.94439,7.13568 -15.89147,5.62406 -5.94708,-1.51162 -10.39796,-6.45688 -11.27716,-12.52975 -0.8792,-6.07287 1.98644,-12.07737 7.26063,-15.21355 5.2742,-3.13618 11.91826,-2.78639 16.834,0.88624 3.22359,2.4076 5.35853,5.99733 5.93504,9.97925 0.57651,3.98191 -0.45266,8.02975 -2.86104,11.25275 z"
   stroke-linecap="round"
   id="path135" />&#10;</g><g
   transform="matrix(1.4653359,0,0,1.4653359,268.0739,151.68754)"
   id="Path_47591">&#10;<path
   style="opacity:0.95;fill:#357ded;fill-rule:nonzero;stroke:none;stroke-width:1;stroke-linecap:butt;stroke-linejoin:miter;stroke-miterlimit:4;stroke-dasharray:none;stroke-dashoffset:0"
   vector-effect="non-scaling-stroke"
   transform="translate(-266.63,-348.42)"
   d="M 216.754,319.64 H 316.5 c 2.55022,5.5e-4 4.61745,2.06778 4.618,4.618 v 48.331 c -5.5e-4,2.55006 -2.06794,4.617 -4.618,4.617 h -99.75 c -2.54967,-5.5e-4 -4.61645,-2.06733 -4.617,-4.617 v -48.331 c 0,-1.22529 0.48695,-2.40035 1.35364,-3.26648 0.86669,-0.86613 2.04207,-1.35232 3.26736,-1.35152 z"
   stroke-linecap="round"
   id="path136" />&#10;</g><g
   transform="matrix(1.4653359,0,0,1.4653359,268.0739,167.55712)"
   id="Path_47592">&#10;<path
   style="opacity:0.95;fill:#aacaf9;fill-rule:nonzero;stroke:none;stroke-width:1;stroke-linecap:butt;stroke-linejoin:miter;stroke-miterlimit:4;stroke-dasharray:none;stroke-dashoffset:0"
   vector-effect="non-scaling-stroke"
   transform="translate(-266.63,-359.25)"
   d="m 212.137,333.224 v 47.424 c 0,2.55006 2.06694,4.61745 4.617,4.618 H 316.5 c 2.55022,-5.5e-4 4.61745,-2.06778 4.618,-4.618 v -47.424 z"
   stroke-linecap="round"
   id="path137" />&#10;</g><g
   transform="matrix(1.4653359,0,0,1.4653359,234.29791,169.12503)"
   id="Path_47593">&#10;<path
   style="opacity:0.95;fill:#f9fbfc;fill-rule:nonzero;stroke:none;stroke-width:1;stroke-linecap:butt;stroke-linejoin:miter;stroke-miterlimit:4;stroke-dasharray:none;stroke-dashoffset:0"
   vector-effect="non-scaling-stroke"
   transform="translate(-243.58,-360.32)"
   d="m 252.769,354.413 -13.826,5.9 13.826,5.814 -1.808,4.18 -16.574,-7.4 v -5.12 l 16.574,-7.448 1.808,4.093 z"
   stroke-linecap="round"
   id="path138" />&#10;</g><g
   transform="matrix(1.4653359,0,0,1.4653359,266.7551,167.9088)"
   id="Path_47594">&#10;<path
   style="opacity:0.95;fill:#f9fbfc;fill-rule:nonzero;stroke:none;stroke-width:1;stroke-linecap:butt;stroke-linejoin:miter;stroke-miterlimit:4;stroke-dasharray:none;stroke-dashoffset:0"
   vector-effect="non-scaling-stroke"
   transform="translate(-265.73,-359.49)"
   d="m 273.133,340.76 -10.033,38.54 -4.773,-1.114 10.08,-38.5 z"
   stroke-linecap="round"
   id="path139" />&#10;</g><g
   transform="matrix(1.4653359,0,0,1.4653359,299.30021,169.09573)"
   id="Path_47595">&#10;<path
   style="opacity:0.95;fill:#f9fbfc;fill-rule:nonzero;stroke:none;stroke-width:1;stroke-linecap:butt;stroke-linejoin:miter;stroke-miterlimit:4;stroke-dasharray:none;stroke-dashoffset:0"
   vector-effect="non-scaling-stroke"
   transform="translate(-287.94,-360.3)"
   d="m 297.127,357.769 v 5.119 l -16.575,7.4 -1.808,-4.179 13.783,-5.814 -13.783,-5.9 1.808,-4.093 16.575,7.448 z"
   stroke-linecap="round"
   id="path140" />&#10;</g><g
   transform="matrix(1.4653359,0,0,1.4653359,207.71671,119.86044)"
   id="Path_47596">&#10;<path
   style="opacity:0.95;fill:#184785;fill-rule:nonzero;stroke:none;stroke-width:1;stroke-linecap:butt;stroke-linejoin:miter;stroke-miterlimit:4;stroke-dasharray:none;stroke-dashoffset:0"
   vector-effect="non-scaling-stroke"
   transform="translate(-225.44,-326.7)"
   d="m 228.979,326.694 c 4e-4,1.43279 -0.86243,2.7247 -2.18607,3.27319 -1.32365,0.54849 -2.84737,0.24552 -3.8605,-0.76762 -1.01314,-1.01313 -1.31611,-2.53685 -0.76762,-3.8605 0.54849,-1.32364 1.8404,-2.18647 3.27319,-2.18607 1.95541,5.5e-4 3.54045,1.58559 3.541,3.541 z"
   stroke-linecap="round"
   id="path141" />&#10;</g><g
   transform="matrix(1.4653359,0,0,1.4653359,227.46944,119.86044)"
   id="Path_47597">&#10;<path
   style="opacity:0.95;fill:#184785;fill-rule:nonzero;stroke:none;stroke-width:1;stroke-linecap:butt;stroke-linejoin:miter;stroke-miterlimit:4;stroke-dasharray:none;stroke-dashoffset:0"
   vector-effect="non-scaling-stroke"
   transform="translate(-238.92,-326.7)"
   d="m 242.464,326.694 c 4e-4,1.43279 -0.86243,2.7247 -2.18607,3.27319 -1.32365,0.54849 -2.84737,0.24552 -3.8605,-0.76762 -1.01314,-1.01313 -1.31611,-2.53685 -0.76762,-3.8605 0.54849,-1.32364 1.8404,-2.18647 3.27319,-2.18607 1.95541,5.5e-4 3.54045,1.58559 3.541,3.541 z"
   stroke-linecap="round"
   id="path142" />&#10;</g>&#10;</svg>
